<svg width="58" height="76" viewBox="0 0 58 76" fill="none" xmlns="http://www.w3.org/2000/svg">
<path d="M20.875 33.3125H17.75C17.5858 33.3148 17.4291 33.3817 17.3138 33.4986C17.1984 33.6156 17.1338 33.7733 17.1338 33.9375C17.1338 34.1017 17.1984 34.2594 17.3138 34.3764C17.4291 34.4933 17.5858 34.5602 17.75 34.5625H19.625V35.1875C19.625 35.3533 19.6909 35.5122 19.8081 35.6294C19.9253 35.7467 20.0843 35.8125 20.25 35.8125C20.4158 35.8125 20.5747 35.7467 20.692 35.6294C20.8092 35.5122 20.875 35.3533 20.875 35.1875V34.5625C21.5342 34.5566 22.1643 34.2906 22.6284 33.8224C23.0924 33.3542 23.3527 32.7217 23.3527 32.0625C23.3527 31.4033 23.0924 30.7708 22.6283 30.3026C22.1643 29.8344 21.5341 29.5684 20.875 29.5625H19.625C19.2935 29.5625 18.9755 29.4308 18.7411 29.1964C18.5067 28.962 18.375 28.644 18.375 28.3125C18.375 27.981 18.5067 27.663 18.7411 27.4286C18.9755 27.1942 19.2935 27.0625 19.625 27.0625H22.75C22.9142 27.0601 23.0708 26.9931 23.186 26.8762C23.3012 26.7593 23.3658 26.6017 23.3658 26.4375C23.3658 26.2733 23.3012 26.1157 23.186 25.9988C23.0708 25.8819 22.9142 25.8149 22.75 25.8125H20.875V25.1875C20.875 25.0217 20.8092 24.8628 20.692 24.7456C20.5747 24.6283 20.4158 24.5625 20.25 24.5625C20.0843 24.5625 19.9253 24.6283 19.8081 24.7456C19.6909 24.8628 19.625 25.0217 19.625 25.1875V25.8125C18.9658 25.8184 18.3357 26.0844 17.8717 26.5526C17.4076 27.0208 17.1473 27.6533 17.1473 28.3125C17.1473 28.9717 17.4077 29.6042 17.8717 30.0724C18.3357 30.5406 18.9659 30.8066 19.6251 30.8125H20.875C21.2041 30.8163 21.5184 30.9496 21.7497 31.1836C21.9811 31.4176 22.1108 31.7334 22.1108 32.0625C22.1108 32.3916 21.9811 32.7074 21.7497 32.9414C21.5184 33.1754 21.2041 33.3087 20.875 33.3125Z" fill="#23282B"/>
<path d="M20.2505 38.3125C22.4046 38.3101 24.4698 37.4533 25.993 35.9301C27.5162 34.4068 28.373 32.3416 28.3755 30.1875C27.9291 19.4086 12.5701 19.4117 12.1255 30.1876C12.1279 32.3417 12.9847 34.4069 14.5079 35.9301C16.0311 37.4533 18.0963 38.3101 20.2505 38.3125ZM20.2505 23.3125C22.0732 23.3146 23.8207 24.0396 25.1095 25.3284C26.3984 26.6173 27.1234 28.3648 27.1255 30.1875C26.7478 39.3081 13.7517 39.3055 13.3755 30.1875C13.3775 28.3647 14.1025 26.6173 15.3914 25.3284C16.6803 24.0395 18.4277 23.3146 20.2505 23.3125ZM32.7505 42.6875H25.2505C24.89 42.6909 24.5381 42.7979 24.2368 42.9958C23.9355 43.1937 23.6975 43.4741 23.5513 43.8036C23.405 44.1331 23.3566 44.4977 23.4119 44.8539C23.4672 45.2101 23.6238 45.5429 23.8631 45.8125C23.5542 46.1556 23.3833 46.6009 23.3833 47.0625C23.3833 47.5241 23.5542 47.9694 23.8631 48.3125C23.5542 48.6556 23.3833 49.1009 23.3833 49.5625C23.3833 50.0241 23.5542 50.4694 23.8631 50.8125C23.6238 51.0821 23.4672 51.4149 23.4119 51.7711C23.3566 52.1274 23.405 52.492 23.5512 52.8214C23.6975 53.1509 23.9355 53.4313 24.2368 53.6292C24.5381 53.8271 24.89 53.9342 25.2505 53.9375H32.7505C33.1109 53.9341 33.4628 53.8271 33.764 53.6292C34.0653 53.4312 34.3033 53.1508 34.4496 52.8214C34.5958 52.4919 34.6442 52.1273 34.5889 51.7711C34.5336 51.4149 34.377 51.0821 34.1378 50.8125C34.4467 50.4694 34.6176 50.0241 34.6176 49.5625C34.6176 49.1009 34.4467 48.6556 34.1378 48.3125C34.4467 47.9694 34.6176 47.5241 34.6176 47.0625C34.6176 46.6009 34.4467 46.1556 34.1378 45.8125C34.3771 45.5429 34.5337 45.2101 34.589 44.8539C34.6443 44.4977 34.596 44.1331 34.4497 43.8036C34.3034 43.4741 34.0654 43.1937 33.7641 42.9958C33.4628 42.7979 33.1109 42.6909 32.7505 42.6875ZM25.2505 43.9375H32.7505C32.9146 43.9399 33.0712 44.0069 33.1864 44.1238C33.3017 44.2407 33.3662 44.3983 33.3662 44.5625C33.3662 44.7267 33.3017 44.8843 33.1864 45.0012C33.0712 45.1181 32.9146 45.1851 32.7505 45.1875H25.2505C25.0863 45.1851 24.9297 45.1181 24.8145 45.0012C24.6992 44.8843 24.6347 44.7267 24.6347 44.5625C24.6347 44.3983 24.6992 44.2407 24.8145 44.1238C24.9297 44.0069 25.0863 43.9399 25.2505 43.9375ZM33.3755 47.0625C33.3753 47.2282 33.3094 47.3871 33.1922 47.5043C33.075 47.6214 32.9162 47.6873 32.7505 47.6875H25.2505C25.0847 47.6875 24.9257 47.6217 24.8085 47.5044C24.6913 47.3872 24.6255 47.2283 24.6255 47.0625C24.6255 46.8967 24.6913 46.7378 24.8085 46.6206C24.9257 46.5033 25.0847 46.4375 25.2505 46.4375H32.7505C32.9162 46.4377 33.075 46.5036 33.1922 46.6207C33.3094 46.7379 33.3753 46.8968 33.3755 47.0625ZM33.3755 49.5625C33.3753 49.7282 33.3094 49.8871 33.1922 50.0043C33.075 50.1214 32.9162 50.1873 32.7505 50.1875H25.2505C25.0847 50.1875 24.9257 50.1217 24.8085 50.0044C24.6913 49.8872 24.6255 49.7283 24.6255 49.5625C24.6255 49.3967 24.6913 49.2378 24.8085 49.1206C24.9257 49.0033 25.0847 48.9375 25.2505 48.9375H32.7505C32.9162 48.9377 33.075 49.0036 33.1922 49.1207C33.3094 49.2379 33.3753 49.3968 33.3755 49.5625ZM32.7505 52.6875H25.2505C25.0863 52.6851 24.9297 52.6181 24.8145 52.5012C24.6992 52.3842 24.6347 52.2267 24.6347 52.0625C24.6347 51.8983 24.6993 51.7407 24.8145 51.6238C24.9297 51.5068 25.0863 51.4399 25.2505 51.4375H32.7505C32.9146 51.4399 33.0712 51.5069 33.1864 51.6238C33.3017 51.7407 33.3662 51.8983 33.3662 52.0625C33.3662 52.2267 33.3017 52.3843 33.1864 52.5012C33.0712 52.6181 32.9146 52.6851 32.7505 52.6875ZM19.6255 47.6875H12.1255C11.765 47.6909 11.4131 47.7979 11.1118 47.9958C10.8105 48.1937 10.5725 48.4741 10.4263 48.8036C10.28 49.1331 10.2316 49.4977 10.2869 49.8539C10.3422 50.2101 10.4988 50.5429 10.7381 50.8125C10.4988 51.0821 10.3422 51.4149 10.2869 51.7711C10.2316 52.1274 10.28 52.492 10.4262 52.8214C10.5725 53.1509 10.8105 53.4313 11.1118 53.6292C11.4131 53.8271 11.765 53.9342 12.1255 53.9375H19.6255C19.9859 53.9341 20.3378 53.8271 20.639 53.6292C20.9403 53.4312 21.1783 53.1508 21.3246 52.8214C21.4708 52.4919 21.5192 52.1273 21.4639 51.7711C21.4086 51.4149 21.252 51.0821 21.0128 50.8125C21.2521 50.5429 21.4087 50.2101 21.464 49.8539C21.5193 49.4977 21.471 49.1331 21.3247 48.8036C21.1784 48.4741 20.9404 48.1937 20.6391 47.9958C20.3378 47.7979 19.9859 47.6909 19.6255 47.6875ZM12.1255 48.9375H19.6255C19.7896 48.9399 19.9462 49.0069 20.0614 49.1238C20.1767 49.2408 20.2412 49.3983 20.2412 49.5625C20.2412 49.7267 20.1766 49.8843 20.0614 50.0012C19.9462 50.1182 19.7896 50.1851 19.6254 50.1875H12.1255C11.9613 50.1851 11.8047 50.1181 11.6895 50.0012C11.5742 49.8843 11.5097 49.7267 11.5097 49.5625C11.5097 49.3983 11.5742 49.2407 11.6895 49.1238C11.8047 49.0069 11.9613 48.9399 12.1255 48.9375ZM19.6255 52.6875H12.1255C11.9613 52.6851 11.8047 52.6181 11.6895 52.5012C11.5742 52.3843 11.5097 52.2267 11.5097 52.0625C11.5097 51.8983 11.5742 51.7407 11.6895 51.6238C11.8047 51.5069 11.9613 51.4399 12.1255 51.4375H19.6255C19.7896 51.4399 19.9462 51.5069 20.0614 51.6238C20.1767 51.7407 20.2412 51.8983 20.2412 52.0625C20.2412 52.2267 20.1767 52.3843 20.0614 52.5012C19.9462 52.6181 19.7896 52.6851 19.6255 52.6875ZM45.8755 37.6875H38.3755C38.015 37.6909 37.6631 37.7979 37.3618 37.9958C37.0605 38.1937 36.8225 38.4741 36.6763 38.8036C36.53 39.1331 36.4816 39.4977 36.5369 39.8539C36.5922 40.2101 36.7488 40.5429 36.9881 40.8125C36.6792 41.1556 36.5083 41.6009 36.5083 42.0625C36.5083 42.5241 36.6792 42.9694 36.9881 43.3125C36.6792 43.6556 36.5083 44.1009 36.5083 44.5625C36.5083 45.0241 36.6792 45.4694 36.9881 45.8125C36.6792 46.1556 36.5083 46.6009 36.5083 47.0625C36.5083 47.5241 36.6792 47.9694 36.9881 48.3125C36.6792 48.6556 36.5083 49.1009 36.5083 49.5625C36.5083 50.0241 36.6792 50.4694 36.9881 50.8125C36.7488 51.0821 36.5922 51.4149 36.5369 51.7711C36.4816 52.1274 36.53 52.492 36.6762 52.8214C36.8225 53.1509 37.0605 53.4313 37.3618 53.6292C37.6631 53.8271 38.015 53.9342 38.3755 53.9375H45.8755C46.2359 53.9341 46.5878 53.8271 46.889 53.6292C47.1903 53.4312 47.4283 53.1508 47.5746 52.8214C47.7208 52.4919 47.7692 52.1273 47.7139 51.7711C47.6586 51.4149 47.502 51.0821 47.2628 50.8125C47.5717 50.4694 47.7426 50.0241 47.7426 49.5625C47.7426 49.1009 47.5717 48.6556 47.2628 48.3125C47.5717 47.9694 47.7426 47.5241 47.7426 47.0625C47.7426 46.6009 47.5717 46.1556 47.2628 45.8125C47.5717 45.4694 47.7426 45.0241 47.7426 44.5625C47.7426 44.1009 47.5717 43.6556 47.2628 43.3125C47.5717 42.9694 47.7426 42.5241 47.7426 42.0625C47.7426 41.6009 47.5717 41.1556 47.2628 40.8125C47.5021 40.5429 47.6587 40.2101 47.714 39.8539C47.7693 39.4977 47.721 39.1331 47.5747 38.8036C47.4284 38.4741 47.1904 38.1937 46.8891 37.9958C46.5878 37.7979 46.2359 37.6909 45.8755 37.6875ZM38.3755 38.9375H45.8755C46.0396 38.9399 46.1962 39.0069 46.3114 39.1238C46.4267 39.2407 46.4912 39.3983 46.4912 39.5625C46.4912 39.7267 46.4267 39.8843 46.3114 40.0012C46.1962 40.1181 46.0396 40.1851 45.8755 40.1875H38.3755C38.2113 40.1851 38.0547 40.1181 37.9395 40.0012C37.8242 39.8843 37.7597 39.7267 37.7597 39.5625C37.7597 39.3983 37.8242 39.2407 37.9395 39.1238C38.0547 39.0069 38.2113 38.9399 38.3755 38.9375ZM46.5005 42.0625C46.5003 42.2282 46.4344 42.3871 46.3172 42.5043C46.2 42.6214 46.0412 42.6873 45.8755 42.6875H38.3755C38.2097 42.6875 38.0507 42.6217 37.9335 42.5044C37.8163 42.3872 37.7505 42.2283 37.7505 42.0625C37.7505 41.8967 37.8163 41.7378 37.9335 41.6206C38.0507 41.5033 38.2097 41.4375 38.3755 41.4375H45.8755C46.0412 41.4377 46.2 41.5036 46.3172 41.6207C46.4344 41.7379 46.5003 41.8968 46.5005 42.0625ZM46.5005 44.5625C46.5003 44.7282 46.4344 44.8871 46.3172 45.0043C46.2 45.1214 46.0412 45.1873 45.8755 45.1875H38.3755C38.2097 45.1875 38.0507 45.1217 37.9335 45.0044C37.8163 44.8872 37.7505 44.7283 37.7505 44.5625C37.7505 44.3967 37.8163 44.2378 37.9335 44.1206C38.0507 44.0033 38.2097 43.9375 38.3755 43.9375H45.8755C46.0412 43.9377 46.2 44.0036 46.3172 44.1207C46.4344 44.2379 46.5003 44.3968 46.5005 44.5625ZM46.5005 47.0625C46.5003 47.2282 46.4344 47.3871 46.3172 47.5043C46.2 47.6214 46.0412 47.6873 45.8755 47.6875H38.3755C38.2097 47.6875 38.0507 47.6217 37.9335 47.5044C37.8163 47.3872 37.7505 47.2283 37.7505 47.0625C37.7505 46.8967 37.8163 46.7378 37.9335 46.6206C38.0507 46.5033 38.2097 46.4375 38.3755 46.4375H45.8755C46.0412 46.4377 46.2 46.5036 46.3172 46.6207C46.4344 46.7379 46.5003 46.8968 46.5005 47.0625ZM46.5005 49.5625C46.5003 49.7282 46.4344 49.8871 46.3172 50.0043C46.2 50.1214 46.0412 50.1873 45.8755 50.1875H38.3755C38.2097 50.1875 38.0507 50.1217 37.9335 50.0044C37.8163 49.8872 37.7505 49.7283 37.7505 49.5625C37.7505 49.3967 37.8163 49.2378 37.9335 49.1206C38.0507 49.0033 38.2097 48.9375 38.3755 48.9375H45.8755C46.0412 48.9377 46.2 49.0036 46.3172 49.1207C46.4344 49.2379 46.5003 49.3968 46.5005 49.5625ZM45.8755 52.6875H38.3755C38.2113 52.6851 38.0547 52.6181 37.9395 52.5012C37.8242 52.3842 37.7597 52.2267 37.7597 52.0625C37.7597 51.8983 37.8243 51.7407 37.9395 51.6238C38.0547 51.5068 38.2113 51.4399 38.3755 51.4375H45.8755C46.0396 51.4399 46.1962 51.5069 46.3114 51.6238C46.4267 51.7407 46.4912 51.8983 46.4912 52.0625C46.4912 52.2267 46.4267 52.3843 46.3114 52.5012C46.1962 52.6181 46.0396 52.6851 45.8755 52.6875Z" fill="#23282B"/>
<path d="M40.887 31.5602C40.9213 31.721 41.0175 31.8618 41.1549 31.9522C41.2923 32.0425 41.4598 32.0751 41.621 32.0428C41.7822 32.0105 41.9242 31.916 42.0163 31.7797C42.1083 31.6435 42.1429 31.4764 42.1126 31.3148L41.4876 28.1898C41.4509 28.0296 41.3542 27.8895 41.2174 27.7984C41.0806 27.7072 40.9141 27.6719 40.7521 27.6997L37.6271 28.3247C37.4773 28.3576 37.3448 28.4443 37.2547 28.5683C37.1646 28.6924 37.1231 28.8452 37.1382 28.9979C37.1532 29.1505 37.2238 29.2922 37.3364 29.3963C37.449 29.5004 37.5959 29.5595 37.7492 29.5625C37.7106 29.5954 39.5141 29.2169 39.5376 29.2173C33.9876 37.7164 23.5625 42.2717 15.2488 42.0623C15.0847 42.065 14.9282 42.1321 14.8131 42.2491C14.6981 42.3662 14.6337 42.5238 14.6338 42.6879C14.6339 42.852 14.6986 43.0095 14.8139 43.1264C14.9291 43.2433 15.0857 43.3101 15.2498 43.3125C23.9033 43.5355 34.7868 38.7732 40.5635 29.944L40.887 31.5602Z" fill="#23282B"/>
</svg>
