<svg width="40" height="40" viewBox="0 0 40 40" fill="none" xmlns="http://www.w3.org/2000/svg">
<path d="M11.874 15.3125H8.74904C8.58481 15.3148 8.42809 15.3817 8.31278 15.4986C8.19746 15.6156 8.13281 15.7733 8.13281 15.9375C8.13281 16.1017 8.19746 16.2594 8.31278 16.3764C8.42809 16.4933 8.58481 16.5602 8.74904 16.5625H10.624V17.1875C10.624 17.3533 10.6899 17.5122 10.8071 17.6294C10.9243 17.7467 11.0833 17.8125 11.249 17.8125C11.4148 17.8125 11.5738 17.7467 11.691 17.6294C11.8082 17.5122 11.874 17.3533 11.874 17.1875V16.5625C12.5332 16.5566 13.1634 16.2906 13.6274 15.8224C14.0914 15.3542 14.3518 14.7217 14.3517 14.0625C14.3517 13.4033 14.0914 12.7708 13.6274 12.3026C13.1633 11.8344 12.5331 11.5684 11.874 11.5625H10.624C10.2925 11.5625 9.97457 11.4308 9.74015 11.1964C9.50573 10.962 9.37404 10.644 9.37404 10.3125C9.37404 9.98098 9.50573 9.66304 9.74015 9.42862C9.97457 9.1942 10.2925 9.0625 10.624 9.0625H13.749C13.9132 9.06007 14.0698 8.99315 14.185 8.8762C14.3002 8.75925 14.3648 8.60167 14.3648 8.4375C14.3648 8.27333 14.3002 8.11575 14.185 7.9988C14.0698 7.88185 13.9132 7.81493 13.749 7.8125H11.874V7.1875C11.874 7.02174 11.8082 6.86277 11.691 6.74556C11.5738 6.62835 11.4148 6.5625 11.249 6.5625C11.0833 6.5625 10.9243 6.62835 10.8071 6.74556C10.6899 6.86277 10.624 7.02174 10.624 7.1875V7.8125C9.96487 7.8184 9.33471 8.0844 8.87068 8.55261C8.40665 9.02081 8.14632 9.65333 8.14632 10.3125C8.14633 10.9717 8.40668 11.6042 8.87072 12.0724C9.33476 12.5406 9.96492 12.8066 10.6241 12.8125H11.874C12.2031 12.8163 12.5174 12.9496 12.7487 13.1836C12.9801 13.4176 13.1099 13.7334 13.1099 14.0625C13.1099 14.3916 12.9801 14.7074 12.7487 14.9414C12.5174 15.1754 12.2031 15.3087 11.874 15.3125Z" fill="#E5E5E5"/>
<path d="M11.2495 20.3125C13.4036 20.3101 15.4688 19.4533 16.992 17.9301C18.5152 16.4068 19.372 14.3416 19.3745 12.1875C18.9281 1.40858 3.56917 1.41171 3.12447 12.1876C3.12693 14.3417 3.98374 16.4069 5.50695 17.9301C7.03015 19.4533 9.09535 20.3101 11.2495 20.3125ZM11.2495 5.3125C13.0722 5.31456 14.8197 6.03955 16.1086 7.32842C17.3974 8.61728 18.1224 10.3648 18.1245 12.1875C17.7468 21.3081 4.75072 21.3055 4.37447 12.1875C4.37655 10.3647 5.10154 8.61726 6.39041 7.3284C7.67927 6.03955 9.42675 5.31456 11.2495 5.3125ZM23.7495 24.6875H16.2495C15.889 24.6909 15.5371 24.7979 15.2358 24.9958C14.9345 25.1937 14.6965 25.4741 14.5503 25.8036C14.404 26.1331 14.3556 26.4977 14.4109 26.8539C14.4662 27.2101 14.6229 27.5429 14.8621 27.8125C14.5533 28.1556 14.3823 28.6009 14.3823 29.0625C14.3823 29.5241 14.5533 29.9694 14.8621 30.3125C14.5533 30.6556 14.3823 31.1009 14.3823 31.5625C14.3823 32.0241 14.5533 32.4694 14.8621 32.8125C14.6229 33.0821 14.4662 33.4149 14.4109 33.7711C14.3556 34.1274 14.404 34.492 14.5503 34.8214C14.6965 35.1509 14.9345 35.4313 15.2358 35.6292C15.5372 35.8271 15.8891 35.9342 16.2495 35.9375H23.7495C24.1099 35.9341 24.4618 35.8271 24.7631 35.6292C25.0644 35.4312 25.3023 35.1508 25.4486 34.8214C25.5948 34.4919 25.6432 34.1273 25.5879 33.7711C25.5327 33.4149 25.376 33.0821 25.1368 32.8125C25.4457 32.4694 25.6166 32.0241 25.6166 31.5625C25.6166 31.1009 25.4457 30.6556 25.1368 30.3125C25.4457 29.9694 25.6166 29.5241 25.6166 29.0625C25.6166 28.6009 25.4457 28.1556 25.1368 27.8125C25.3761 27.5429 25.5327 27.2101 25.5881 26.8539C25.6434 26.4977 25.595 26.1331 25.4487 25.8036C25.3025 25.4741 25.0645 25.1937 24.7631 24.9958C24.4618 24.7979 24.1099 24.6909 23.7495 24.6875ZM16.2495 25.9375H23.7495C23.9136 25.9399 24.0702 26.0069 24.1855 26.1238C24.3007 26.2407 24.3653 26.3983 24.3653 26.5625C24.3653 26.7267 24.3007 26.8843 24.1855 27.0012C24.0702 27.1181 23.9136 27.1851 23.7495 27.1875H16.2495C16.0853 27.1851 15.9287 27.1181 15.8135 27.0012C15.6983 26.8843 15.6337 26.7267 15.6337 26.5625C15.6337 26.3983 15.6983 26.2407 15.8135 26.1238C15.9287 26.0069 16.0853 25.9399 16.2495 25.9375ZM24.3745 29.0625C24.3743 29.2282 24.3084 29.3871 24.1912 29.5043C24.0741 29.6214 23.9152 29.6873 23.7495 29.6875H16.2495C16.0837 29.6875 15.9247 29.6217 15.8075 29.5044C15.6903 29.3872 15.6245 29.2283 15.6245 29.0625C15.6245 28.8967 15.6903 28.7378 15.8075 28.6206C15.9247 28.5033 16.0837 28.4375 16.2495 28.4375H23.7495C23.9152 28.4377 24.0741 28.5036 24.1912 28.6207C24.3084 28.7379 24.3743 28.8968 24.3745 29.0625ZM24.3745 31.5625C24.3743 31.7282 24.3084 31.8871 24.1912 32.0043C24.0741 32.1214 23.9152 32.1873 23.7495 32.1875H16.2495C16.0837 32.1875 15.9247 32.1217 15.8075 32.0044C15.6903 31.8872 15.6245 31.7283 15.6245 31.5625C15.6245 31.3967 15.6903 31.2378 15.8075 31.1206C15.9247 31.0033 16.0837 30.9375 16.2495 30.9375H23.7495C23.9152 30.9377 24.0741 31.0036 24.1912 31.1207C24.3084 31.2379 24.3743 31.3968 24.3745 31.5625ZM23.7495 34.6875H16.2495C16.0853 34.6851 15.9287 34.6181 15.8135 34.5012C15.6983 34.3842 15.6337 34.2267 15.6337 34.0625C15.6337 33.8983 15.6983 33.7407 15.8135 33.6238C15.9287 33.5068 16.0854 33.4399 16.2495 33.4375H23.7495C23.9136 33.4399 24.0702 33.5069 24.1855 33.6238C24.3007 33.7407 24.3653 33.8983 24.3653 34.0625C24.3653 34.2267 24.3007 34.3843 24.1855 34.5012C24.0702 34.6181 23.9136 34.6851 23.7495 34.6875ZM10.6245 29.6875H3.12447C2.76401 29.6909 2.41213 29.7979 2.11083 29.9958C1.80953 30.1937 1.57154 30.4741 1.42528 30.8036C1.27901 31.1331 1.23064 31.4977 1.28594 31.8539C1.34124 32.2101 1.49787 32.5429 1.73714 32.8125C1.49786 33.0821 1.34121 33.4149 1.28591 33.7711C1.2306 34.1274 1.27898 34.492 1.42525 34.8214C1.57153 35.1509 1.80953 35.4313 2.11084 35.6292C2.41216 35.8271 2.76406 35.9342 3.12453 35.9375H10.6245C10.9849 35.9341 11.3368 35.8271 11.6381 35.6292C11.9393 35.4312 12.1773 35.1508 12.3236 34.8214C12.4698 34.4919 12.5182 34.1273 12.4629 33.7711C12.4077 33.4149 12.251 33.0821 12.0118 32.8125C12.2511 32.5429 12.4077 32.2101 12.4631 31.8539C12.5184 31.4977 12.47 31.1331 12.3237 30.8036C12.1775 30.4741 11.9395 30.1937 11.6381 29.9958C11.3368 29.7979 10.9849 29.6909 10.6245 29.6875ZM3.12447 30.9375H10.6245C10.7886 30.9399 10.9452 31.0069 11.0605 31.1238C11.1757 31.2408 11.2403 31.3983 11.2403 31.5625C11.2403 31.7267 11.1757 31.8843 11.0604 32.0012C10.9452 32.1182 10.7886 32.1851 10.6244 32.1875H3.12447C2.96032 32.1851 2.80371 32.1181 2.68849 32.0012C2.57326 31.8843 2.50868 31.7267 2.50868 31.5625C2.50868 31.3983 2.57326 31.2407 2.68849 31.1238C2.80371 31.0069 2.96032 30.9399 3.12447 30.9375ZM10.6245 34.6875H3.12447C2.96032 34.6851 2.80371 34.6181 2.68849 34.5012C2.57326 34.3843 2.50868 34.2267 2.50868 34.0625C2.50868 33.8983 2.57326 33.7407 2.68849 33.6238C2.80371 33.5069 2.96032 33.4399 3.12447 33.4375H10.6245C10.7886 33.4399 10.9452 33.5069 11.0605 33.6238C11.1757 33.7407 11.2403 33.8983 11.2403 34.0625C11.2403 34.2267 11.1757 34.3843 11.0605 34.5012C10.9452 34.6181 10.7886 34.6851 10.6245 34.6875ZM36.8745 19.6875H29.3745C29.014 19.6909 28.6621 19.7979 28.3608 19.9958C28.0595 20.1937 27.8215 20.4741 27.6753 20.8036C27.529 21.1331 27.4806 21.4977 27.5359 21.8539C27.5912 22.2101 27.7479 22.5429 27.9871 22.8125C27.6782 23.1556 27.5073 23.6009 27.5073 24.0625C27.5073 24.5241 27.6782 24.9694 27.9871 25.3125C27.6782 25.6556 27.5073 26.1009 27.5073 26.5625C27.5073 27.0241 27.6782 27.4694 27.9871 27.8125C27.6782 28.1556 27.5073 28.6009 27.5073 29.0625C27.5073 29.5241 27.6782 29.9694 27.9871 30.3125C27.6782 30.6556 27.5073 31.1009 27.5073 31.5625C27.5073 32.0241 27.6782 32.4694 27.9871 32.8125C27.7479 33.0821 27.5912 33.4149 27.5359 33.7711C27.4806 34.1274 27.529 34.492 27.6753 34.8214C27.8215 35.1509 28.0595 35.4313 28.3608 35.6292C28.6622 35.8271 29.0141 35.9342 29.3745 35.9375H36.8745C37.2349 35.9341 37.5868 35.8271 37.8881 35.6292C38.1894 35.4312 38.4273 35.1508 38.5736 34.8214C38.7198 34.4919 38.7682 34.1273 38.7129 33.7711C38.6577 33.4149 38.501 33.0821 38.2618 32.8125C38.5707 32.4694 38.7416 32.0241 38.7416 31.5625C38.7416 31.1009 38.5707 30.6556 38.2618 30.3125C38.5707 29.9694 38.7416 29.5241 38.7416 29.0625C38.7416 28.6009 38.5707 28.1556 38.2618 27.8125C38.5707 27.4694 38.7416 27.0241 38.7416 26.5625C38.7416 26.1009 38.5707 25.6556 38.2618 25.3125C38.5707 24.9694 38.7416 24.5241 38.7416 24.0625C38.7416 23.6009 38.5707 23.1556 38.2618 22.8125C38.5011 22.5429 38.6577 22.2101 38.7131 21.8539C38.7684 21.4977 38.72 21.1331 38.5737 20.8036C38.4275 20.4741 38.1895 20.1937 37.8881 19.9958C37.5868 19.7979 37.2349 19.6909 36.8745 19.6875ZM29.3745 20.9375H36.8745C37.0386 20.9399 37.1952 21.0069 37.3105 21.1238C37.4257 21.2407 37.4903 21.3983 37.4903 21.5625C37.4903 21.7267 37.4257 21.8843 37.3105 22.0012C37.1952 22.1181 37.0386 22.1851 36.8745 22.1875H29.3745C29.2103 22.1851 29.0537 22.1181 28.9385 22.0012C28.8233 21.8843 28.7587 21.7267 28.7587 21.5625C28.7587 21.3983 28.8233 21.2407 28.9385 21.1238C29.0537 21.0069 29.2103 20.9399 29.3745 20.9375ZM37.4995 24.0625C37.4993 24.2282 37.4334 24.3871 37.3162 24.5043C37.1991 24.6214 37.0402 24.6873 36.8745 24.6875H29.3745C29.2087 24.6875 29.0497 24.6217 28.9325 24.5044C28.8153 24.3872 28.7495 24.2283 28.7495 24.0625C28.7495 23.8967 28.8153 23.7378 28.9325 23.6206C29.0497 23.5033 29.2087 23.4375 29.3745 23.4375H36.8745C37.0402 23.4377 37.1991 23.5036 37.3162 23.6207C37.4334 23.7379 37.4993 23.8968 37.4995 24.0625ZM37.4995 26.5625C37.4993 26.7282 37.4334 26.8871 37.3162 27.0043C37.1991 27.1214 37.0402 27.1873 36.8745 27.1875H29.3745C29.2087 27.1875 29.0497 27.1217 28.9325 27.0044C28.8153 26.8872 28.7495 26.7283 28.7495 26.5625C28.7495 26.3967 28.8153 26.2378 28.9325 26.1206C29.0497 26.0033 29.2087 25.9375 29.3745 25.9375H36.8745C37.0402 25.9377 37.1991 26.0036 37.3162 26.1207C37.4334 26.2379 37.4993 26.3968 37.4995 26.5625ZM37.4995 29.0625C37.4993 29.2282 37.4334 29.3871 37.3162 29.5043C37.1991 29.6214 37.0402 29.6873 36.8745 29.6875H29.3745C29.2087 29.6875 29.0497 29.6217 28.9325 29.5044C28.8153 29.3872 28.7495 29.2283 28.7495 29.0625C28.7495 28.8967 28.8153 28.7378 28.9325 28.6206C29.0497 28.5033 29.2087 28.4375 29.3745 28.4375H36.8745C37.0402 28.4377 37.1991 28.5036 37.3162 28.6207C37.4334 28.7379 37.4993 28.8968 37.4995 29.0625ZM37.4995 31.5625C37.4993 31.7282 37.4334 31.8871 37.3162 32.0043C37.1991 32.1214 37.0402 32.1873 36.8745 32.1875H29.3745C29.2087 32.1875 29.0497 32.1217 28.9325 32.0044C28.8153 31.8872 28.7495 31.7283 28.7495 31.5625C28.7495 31.3967 28.8153 31.2378 28.9325 31.1206C29.0497 31.0033 29.2087 30.9375 29.3745 30.9375H36.8745C37.0402 30.9377 37.1991 31.0036 37.3162 31.1207C37.4334 31.2379 37.4993 31.3968 37.4995 31.5625ZM36.8745 34.6875H29.3745C29.2103 34.6851 29.0537 34.6181 28.9385 34.5012C28.8233 34.3842 28.7587 34.2267 28.7587 34.0625C28.7587 33.8983 28.8233 33.7407 28.9385 33.6238C29.0537 33.5068 29.2104 33.4399 29.3745 33.4375H36.8745C37.0386 33.4399 37.1952 33.5069 37.3105 33.6238C37.4257 33.7407 37.4903 33.8983 37.4903 34.0625C37.4903 34.2267 37.4257 34.3843 37.3105 34.5012C37.1952 34.6181 37.0386 34.6851 36.8745 34.6875Z" fill="#E5E5E5"/>
<path d="M31.888 13.5602C31.9222 13.721 32.0185 13.8618 32.1559 13.9522C32.2933 14.0425 32.4607 14.0751 32.622 14.0428C32.7832 14.0105 32.9252 13.916 33.0172 13.7797C33.1093 13.6435 33.1439 13.4764 33.1136 13.3148L32.4886 10.1898C32.4518 10.0296 32.3552 9.88951 32.2184 9.79836C32.0816 9.70721 31.9151 9.6719 31.7531 9.69969L28.6281 10.3247C28.4783 10.3576 28.3458 10.4443 28.2557 10.5683C28.1656 10.6924 28.1241 10.8452 28.1392 10.9979C28.1542 11.1505 28.2247 11.2922 28.3374 11.3963C28.45 11.5004 28.5969 11.5595 28.7502 11.5625C28.7116 11.5954 30.5151 11.2169 30.5386 11.2173C24.9885 19.7164 14.5635 24.2717 6.24976 24.0623C6.08565 24.065 5.92917 24.1321 5.8141 24.2491C5.69904 24.3662 5.63463 24.5238 5.63477 24.6879C5.6349 24.852 5.69958 25.0095 5.81484 25.1264C5.9301 25.2433 6.08669 25.3101 6.25081 25.3125C14.9043 25.5355 25.7878 20.7732 31.5645 11.944L31.888 13.5602Z" fill="#E5E5E5"/>
</svg>
