<svg width="60" height="44" viewBox="0 0 60 44" fill="none" xmlns="http://www.w3.org/2000/svg">
<g clip-path="url(#clip0_6239_2145)">
<path d="M40.4421 9.31694L41.2502 8.50885V15.1251C41.2502 15.2908 41.3161 15.4498 41.4333 15.567C41.5505 15.6842 41.7095 15.7501 41.8752 15.7501C42.041 15.7501 42.2 15.6842 42.3172 15.567C42.4344 15.4498 42.5002 15.2908 42.5002 15.1251V8.50885L43.3084 9.31698C43.3663 9.37561 43.4352 9.42221 43.5112 9.4541C43.5871 9.48599 43.6687 9.50254 43.7511 9.50279C43.8335 9.50305 43.9151 9.48701 43.9913 9.4556C44.0674 9.42418 44.1367 9.37801 44.1949 9.31975C44.2532 9.26148 44.2993 9.19227 44.3308 9.1161C44.3622 9.03992 44.3782 8.95828 44.3779 8.87589C44.3777 8.79349 44.3611 8.71196 44.3292 8.63598C44.2973 8.56 44.2507 8.49109 44.1921 8.43319L42.3179 6.55897C42.2004 6.44178 42.0412 6.37598 41.8752 6.37598C41.7093 6.37598 41.5501 6.44178 41.4325 6.55897L39.5584 8.43319C39.4429 8.55075 39.3786 8.70913 39.3793 8.87389C39.3801 9.03865 39.4458 9.19645 39.5623 9.31296C39.6788 9.42946 39.8366 9.49524 40.0014 9.49599C40.1662 9.49673 40.3246 9.43238 40.4421 9.31694ZM30.4421 4.94194L31.2502 4.13385V25.1251C31.2502 25.2908 31.3161 25.4498 31.4333 25.567C31.5505 25.6842 31.7095 25.7501 31.8752 25.7501C32.041 25.7501 32.2 25.6842 32.3172 25.567C32.4344 25.4498 32.5002 25.2908 32.5002 25.1251V4.13385L33.3084 4.94198C33.3663 5.00061 33.4352 5.04721 33.5112 5.0791C33.5871 5.11099 33.6687 5.12754 33.7511 5.12779C33.8335 5.12805 33.9151 5.11201 33.9913 5.0806C34.0674 5.04918 34.1367 5.00301 34.1949 4.94475C34.2532 4.88648 34.2993 4.81727 34.3308 4.7411C34.3622 4.66492 34.3782 4.58328 34.3779 4.50089C34.3777 4.41849 34.3611 4.33696 34.3292 4.26098C34.2973 4.185 34.2507 4.11609 34.1921 4.05819L32.3179 2.18397C32.2004 2.06678 32.0412 2.00098 31.8752 2.00098C31.7093 2.00098 31.5501 2.06678 31.4325 2.18397L29.5584 4.05819C29.4995 4.11603 29.4526 4.18496 29.4205 4.261C29.3884 4.33704 29.3717 4.4187 29.3713 4.50124C29.3709 4.58378 29.3869 4.66558 29.4183 4.74191C29.4497 4.81824 29.496 4.88759 29.5543 4.94596C29.6127 5.00433 29.6821 5.05055 29.7584 5.08197C29.8347 5.11338 29.9165 5.12937 29.9991 5.12899C30.0816 5.12862 30.1633 5.1119 30.2393 5.07979C30.3153 5.04769 30.3843 5.00083 30.4421 4.94194ZM19.8171 8.06694L20.6252 7.25885V10.7501C20.6252 10.9158 20.6911 11.0748 20.8083 11.192C20.9255 11.3092 21.0845 11.3751 21.2502 11.3751C21.416 11.3751 21.575 11.3092 21.6922 11.192C21.8094 11.0748 21.8752 10.9158 21.8752 10.7501V7.25885L22.6834 8.06698C22.8008 8.18295 22.9594 8.24776 23.1244 8.24723C23.2895 8.24671 23.4476 8.18091 23.5644 8.06419C23.6811 7.94747 23.7469 7.78932 23.7474 7.62426C23.7479 7.4592 23.6831 7.30064 23.5671 7.18319L21.6929 5.30897C21.5754 5.19178 21.4162 5.12598 21.2502 5.12598C21.0843 5.12598 20.9251 5.19178 20.8075 5.30897L18.9334 7.18319C18.8179 7.30075 18.7536 7.45913 18.7543 7.62389C18.7551 7.78865 18.8208 7.94645 18.9373 8.06296C19.0538 8.17946 19.2116 8.24524 19.3764 8.24599C19.5412 8.24673 19.6996 8.18238 19.8171 8.06694ZM31.3564 42.0001C31.5222 42.0001 31.6812 41.9342 31.7984 41.817C31.9156 41.6998 31.9814 41.5408 31.9814 41.3751C31.9814 41.2093 31.9156 41.0503 31.7984 40.9331C31.6812 40.8159 31.5222 40.7501 31.3564 40.7501H22.6547L23.6263 36.3751H29.3813C29.5471 36.3751 29.7061 36.3092 29.8233 36.192C29.9405 36.0748 30.0063 35.9158 30.0063 35.7501C30.0063 35.5843 29.9405 35.4253 29.8233 35.3081C29.7061 35.1909 29.5471 35.1251 29.3813 35.1251H28.0018L26.8606 29.9896C26.8297 29.8507 26.7524 29.7266 26.6414 29.6376C26.5304 29.5486 26.3925 29.5001 26.2502 29.5001H17.5002C17.358 29.5001 17.22 29.5486 17.1091 29.6376C16.9981 29.7266 16.9208 29.8507 16.8899 29.9896L15.7487 35.1251H11.8752C11.733 35.1251 11.595 35.1736 11.4841 35.2626C11.3731 35.3516 11.2958 35.4757 11.2649 35.6146L10.0149 41.2396C9.99458 41.3309 9.99506 41.4257 10.0163 41.5169C10.0375 41.6081 10.079 41.6933 10.1376 41.7663C10.1961 41.8393 10.2704 41.8982 10.3548 41.9387C10.4392 41.9791 10.5316 42.0001 10.6252 42.0001H31.3564ZM18.0013 30.7501H25.7491L26.7208 35.1251H17.0297L18.0013 30.7501ZM22.3459 36.3751L21.8752 38.493L21.4046 36.3751H22.3459ZM11.4046 40.7501L12.3763 36.3751H20.1241L21.0958 40.7501H11.4046Z" fill="#23282B"/>
<path d="M24.6294 37.0001C24.4871 37 24.3491 37.0485 24.2381 37.1375C24.1271 37.2265 24.0498 37.3507 24.019 37.4896L23.7608 38.6523C23.7251 38.8142 23.755 38.9836 23.844 39.1234C23.933 39.2633 24.0739 39.3621 24.2357 39.3982C24.2804 39.4078 24.326 39.4127 24.3718 39.4128C24.5139 39.4126 24.6517 39.364 24.7625 39.275C24.8734 39.1861 24.9506 39.062 24.9815 38.9233L25.1311 38.2501H26.2505C26.4162 38.2501 26.5752 38.1842 26.6924 38.067C26.8096 37.9498 26.8755 37.7909 26.8755 37.6251C26.8755 37.4593 26.8096 37.3004 26.6924 37.1832C26.5752 37.0659 26.4162 37.0001 26.2505 37.0001H24.6294ZM21.2505 32.0001C21.2505 31.918 21.2344 31.8367 21.203 31.7609C21.1716 31.685 21.1256 31.6161 21.0675 31.558C21.0095 31.5 20.9405 31.454 20.8647 31.4226C20.7888 31.3912 20.7076 31.375 20.6255 31.3751H19.0044C18.8621 31.375 18.7241 31.4235 18.6131 31.5125C18.5021 31.6015 18.4248 31.7257 18.394 31.8646L18.1358 33.0273C18.1001 33.1892 18.13 33.3586 18.219 33.4984C18.308 33.6383 18.4489 33.7371 18.6107 33.7732C18.6554 33.7828 18.701 33.7877 18.7468 33.7878C18.8889 33.7876 19.0267 33.739 19.1375 33.65C19.2484 33.5611 19.3256 33.437 19.3565 33.2983L19.5061 32.6251H20.6255C20.7076 32.6251 20.7888 32.609 20.8647 32.5776C20.9405 32.5462 21.0095 32.5002 21.0675 32.4421C21.1256 32.3841 21.1716 32.3152 21.203 32.2393C21.2344 32.1635 21.2505 32.0822 21.2505 32.0001ZM15.0005 37.0001H13.3794C13.2371 37 13.0991 37.0485 12.9881 37.1375C12.8771 37.2265 12.7998 37.3507 12.769 37.4896L12.5108 38.6523C12.4751 38.8142 12.505 38.9836 12.594 39.1234C12.683 39.2633 12.8239 39.3621 12.9857 39.3982C13.0304 39.4078 13.076 39.4127 13.1218 39.4128C13.2639 39.4126 13.4017 39.364 13.5125 39.275C13.6234 39.1861 13.7006 39.062 13.7315 38.9233L13.8811 38.2501H15.0005C15.1662 38.2501 15.3252 38.1842 15.4424 38.067C15.5596 37.9498 15.6255 37.7909 15.6255 37.6251C15.6255 37.4593 15.5596 37.3004 15.4424 37.1832C15.3252 37.0659 15.1662 37.0001 15.0005 37.0001ZM49.6556 31.6803C49.4414 30.0629 48.8826 28.5104 48.017 27.1276C47.1514 25.7447 45.9991 24.5637 44.638 23.6643C45.4753 22.3301 47.3107 18.9735 46.1845 16.7206C46.1103 16.5724 45.9803 16.4597 45.823 16.4073C45.6658 16.3549 45.4942 16.367 45.3459 16.441C42.1703 18.0285 41.0704 17.1783 41.0685 17.1783C40.9933 17.1026 40.8999 17.0474 40.7973 17.018C40.6947 16.9886 40.5862 16.986 40.4823 17.0104C40.3784 17.0349 40.2824 17.0855 40.2036 17.1575C40.1248 17.2295 40.0658 17.3206 40.0322 17.4219L39.8076 18.0987L39.1618 17.1441C39.0805 17.0238 38.9598 16.9355 38.8205 16.8944C38.6812 16.8533 38.5319 16.862 38.3983 16.9189C38.0164 17.09 37.5931 17.147 37.1795 17.083C36.7659 17.019 36.3797 16.8368 36.0673 16.5582C35.9973 16.4881 35.9117 16.4357 35.8174 16.4053C35.7232 16.3748 35.623 16.3672 35.5253 16.3831C35.4275 16.3989 35.3349 16.4378 35.2551 16.4965C35.1753 16.5552 35.1106 16.632 35.0664 16.7206C33.9401 18.9735 35.7756 22.3302 36.6129 23.6643C35.2518 24.5637 34.0995 25.7447 33.2339 27.1276C32.3682 28.5104 31.8095 30.0629 31.5953 31.6803C31.1211 34.6551 30.8739 37.9705 32.6341 39.9993C33.8017 41.3446 35.7103 42.0001 38.4563 42.0001C38.5539 42.0001 38.6534 41.9995 38.7535 41.9977H42.487C45.3874 42.0526 47.4077 41.3928 48.6168 39.9994C50.377 37.9705 50.1298 34.6551 49.6556 31.6803ZM35.9776 17.9925C36.7231 18.3788 37.5872 18.468 38.3958 18.2422L39.4829 19.8498C39.5474 19.9474 39.6384 20.0246 39.7452 20.0722C39.852 20.1199 39.9702 20.1361 40.0859 20.119C40.2015 20.1031 40.3103 20.0552 40.4001 19.9806C40.4898 19.9061 40.5569 19.8079 40.5937 19.6972L40.9904 18.5022C41.7558 18.7414 43.1059 18.8122 45.2544 17.8656C45.551 19.5654 44.2009 22.0752 43.4215 23.2501H42.2618L43.0595 21.6546C43.0965 21.5812 43.1186 21.5012 43.1245 21.4192C43.1305 21.3372 43.1203 21.2548 43.0944 21.1768C43.0685 21.0988 43.0274 21.0266 42.9736 20.9645C42.9198 20.9024 42.8542 20.8514 42.7807 20.8147C42.7071 20.7779 42.6271 20.756 42.5451 20.7502C42.4631 20.7445 42.3807 20.7549 42.3028 20.781C42.2248 20.8071 42.1527 20.8483 42.0907 20.9023C42.0287 20.9563 41.978 21.0219 41.9414 21.0955L40.8641 23.2501H40.3868L39.3095 21.0955C39.2352 20.9477 39.1052 20.8353 38.9481 20.7832C38.791 20.731 38.6196 20.7433 38.4716 20.8173C38.3235 20.8914 38.2109 21.0211 38.1584 21.1781C38.1058 21.335 38.1177 21.5064 38.1914 21.6546L38.9891 23.2501H37.8294C37.0696 22.1045 35.7658 19.6881 35.9776 17.9925ZM47.6726 39.1803C46.721 40.2771 45.0316 40.7983 42.4974 40.7477H38.7431C36.2059 40.802 34.5299 40.2771 33.5783 39.1803C32.4455 37.8747 32.2215 35.6909 32.8294 31.8768C33.6241 26.8914 36.9664 24.8657 37.65 24.5001H38.8327L38.2305 25.4034C38.184 25.4717 38.1515 25.5485 38.1349 25.6294C38.1182 25.7103 38.1178 25.7937 38.1336 25.8747C38.1494 25.9558 38.1811 26.0329 38.2269 26.1017C38.2727 26.1704 38.3317 26.2294 38.4004 26.2752C38.4691 26.321 38.5462 26.3527 38.6273 26.3686C38.7083 26.3844 38.7917 26.384 38.8726 26.3674C38.9535 26.3508 39.0303 26.3184 39.0986 26.2719C39.1669 26.2255 39.2253 26.1659 39.2705 26.0968L40.3349 24.5001H40.916L41.9805 26.0968C42.0256 26.1659 42.084 26.2255 42.1523 26.2719C42.2206 26.3184 42.2974 26.3508 42.3783 26.3674C42.4592 26.384 42.5426 26.3844 42.6236 26.3686C42.7047 26.3527 42.7818 26.321 42.8505 26.2752C42.9193 26.2294 42.9782 26.1704 43.024 26.1017C43.0698 26.0329 43.1015 25.9558 43.1173 25.8747C43.1331 25.7937 43.1327 25.7103 43.1161 25.6294C43.0994 25.5485 43.0669 25.4717 43.0205 25.4034L42.4183 24.5001H43.5991C44.907 25.2866 46.0201 26.3587 46.8552 27.6361C47.6903 28.9135 48.2257 30.3632 48.4215 31.8768C49.0294 35.6909 48.8054 37.8747 47.6726 39.1803Z" fill="#23282B"/>
<path d="M11.875 33.875C11.9571 33.875 12.0384 33.8589 12.1142 33.8275C12.1901 33.7961 12.259 33.7501 12.317 33.692C12.3751 33.634 12.4211 33.5651 12.4525 33.4892C12.4839 33.4134 12.5 33.3321 12.5 33.25V13.875H27.5V28.25C27.5 28.4158 27.5658 28.5747 27.6831 28.6919C27.8003 28.8092 27.9592 28.875 28.125 28.875C28.2908 28.875 28.4497 28.8092 28.5669 28.6919C28.6842 28.5747 28.75 28.4158 28.75 28.25V13.25C28.75 13.1679 28.7339 13.0866 28.7025 13.0108C28.6711 12.9349 28.6251 12.866 28.567 12.808C28.509 12.7499 28.4401 12.7039 28.3642 12.6725C28.2884 12.6411 28.2071 12.625 28.125 12.625H11.875C11.7929 12.625 11.7116 12.6411 11.6358 12.6725C11.5599 12.7039 11.491 12.7499 11.433 12.808C11.3749 12.866 11.3289 12.9349 11.2975 13.0108C11.2661 13.0866 11.25 13.1679 11.25 13.25V33.25C11.25 33.3321 11.2661 33.4134 11.2975 33.4892C11.3289 33.5651 11.3749 33.634 11.433 33.692C11.491 33.7501 11.5599 33.7961 11.6358 33.8275C11.7116 33.8589 11.7929 33.875 11.875 33.875Z" fill="#23282B"/>
<path d="M20 20.75C19.3819 20.75 18.7777 20.9333 18.2638 21.2767C17.7499 21.62 17.3494 22.1081 17.1129 22.6791C16.8764 23.2501 16.8145 23.8785 16.935 24.4847C17.0556 25.0908 17.3533 25.6477 17.7903 26.0847C18.2273 26.5217 18.7842 26.8194 19.3903 26.94C19.9965 27.0605 20.6249 26.9986 21.1959 26.7621C21.7669 26.5256 22.255 26.1251 22.5983 25.6112C22.9417 25.0973 23.125 24.4931 23.125 23.875C23.124 23.0465 22.7945 22.2522 22.2086 21.6664C21.6228 21.0805 20.8285 20.751 20 20.75ZM20 25.75C19.6292 25.75 19.2666 25.64 18.9583 25.434C18.65 25.228 18.4096 24.9351 18.2677 24.5925C18.1258 24.2499 18.0887 23.8729 18.161 23.5092C18.2334 23.1455 18.412 22.8114 18.6742 22.5492C18.9364 22.287 19.2705 22.1084 19.6342 22.036C19.9979 21.9637 20.3749 22.0008 20.7175 22.1427C21.0601 22.2846 21.353 22.525 21.559 22.8333C21.765 23.1416 21.875 23.5042 21.875 23.875C21.8745 24.3721 21.6767 24.8487 21.3252 25.2002C20.9737 25.5517 20.4971 25.7495 20 25.75Z" fill="#23282B"/>
<path d="M25.625 28.25C25.7071 28.25 25.7884 28.2339 25.8642 28.2025C25.9401 28.1711 26.009 28.1251 26.067 28.067C26.1251 28.009 26.1711 27.9401 26.2025 27.8642C26.2339 27.7884 26.25 27.7071 26.25 27.625V18.25C26.25 18.1679 26.2339 18.0866 26.2025 18.0108C26.1711 17.9349 26.1251 17.866 26.067 17.808C26.009 17.7499 25.9401 17.7039 25.8642 17.6725C25.7884 17.6411 25.7071 17.625 25.625 17.625C25.1279 17.6245 24.6513 17.4267 24.2998 17.0752C23.9483 16.7237 23.7505 16.2471 23.75 15.75C23.75 15.6679 23.7339 15.5866 23.7025 15.5108C23.6711 15.4349 23.6251 15.366 23.567 15.308C23.509 15.2499 23.4401 15.2039 23.3642 15.1725C23.2884 15.1411 23.2071 15.125 23.125 15.125H16.875C16.7929 15.125 16.7116 15.1411 16.6358 15.1725C16.5599 15.2039 16.491 15.2499 16.433 15.308C16.3749 15.366 16.3289 15.4349 16.2975 15.5108C16.2661 15.5866 16.25 15.6679 16.25 15.75C16.2495 16.2471 16.0517 16.7237 15.7002 17.0752C15.3487 17.4267 14.8721 17.6245 14.375 17.625C14.2929 17.625 14.2116 17.6411 14.1358 17.6725C14.0599 17.7039 13.991 17.7499 13.933 17.808C13.8749 17.866 13.8289 17.9349 13.7975 18.0108C13.7661 18.0866 13.75 18.1679 13.75 18.25V33.25C13.75 33.4158 13.8158 33.5747 13.9331 33.6919C14.0503 33.8092 14.2092 33.875 14.375 33.875C14.5408 33.875 14.6997 33.8092 14.8169 33.6919C14.9342 33.5747 15 33.4158 15 33.25V18.8121C15.5999 18.6885 16.1505 18.3918 16.5836 17.9586C17.0168 17.5255 17.3135 16.9749 17.4371 16.375H22.5629C22.6865 16.9749 22.9832 17.5255 23.4164 17.9586C23.8495 18.3918 24.4001 18.6885 25 18.8121V27.625C25 27.7071 25.0161 27.7884 25.0475 27.8642C25.0789 27.9401 25.1249 28.009 25.183 28.067C25.241 28.1251 25.3099 28.1711 25.3858 28.2025C25.4616 28.2339 25.5429 28.25 25.625 28.25ZM41.7157 31.0295C41.808 31.1164 41.8646 31.2346 41.8744 31.361C41.8707 31.5252 41.9319 31.6843 42.0446 31.8038C42.1574 31.9233 42.3126 31.9936 42.4768 31.9996C42.641 32.0055 42.8009 31.9466 42.922 31.8355C43.0431 31.7245 43.1155 31.5702 43.1238 31.4061C43.1269 30.9444 42.9474 30.5002 42.6245 30.1702C42.2511 29.8101 41.7665 29.5877 41.25 29.5394V28.875C41.25 28.7092 41.1842 28.5503 41.0669 28.4331C40.9497 28.3158 40.7908 28.25 40.625 28.25C40.4592 28.25 40.3003 28.3158 40.1831 28.4331C40.0658 28.5503 40 28.7092 40 28.875V29.5532C39.4816 29.621 39.0056 29.875 38.6607 30.2678C38.3158 30.6607 38.1256 31.1657 38.1256 31.6885C38.1256 32.2112 38.3158 32.7162 38.6607 33.1091C39.0056 33.502 39.4816 33.756 40 33.8237V35.6935C39.8278 35.6615 39.6672 35.5845 39.5343 35.4705C39.4462 35.3867 39.3899 35.2749 39.375 35.1543C39.383 34.9887 39.3249 34.8274 39.2136 34.7046C39.1022 34.5818 38.9467 34.5082 38.7811 34.5C38.6989 34.4952 38.6166 34.5068 38.539 34.5342C38.4614 34.5616 38.39 34.6041 38.329 34.6594C38.268 34.7147 38.2187 34.7816 38.1838 34.8562C38.149 34.9308 38.1294 35.0116 38.1262 35.0939C38.1231 35.5556 38.3026 35.9998 38.6255 36.3298C38.9994 36.6892 39.4838 36.9116 40 36.961V37.625C40 37.7908 40.0658 37.9497 40.1831 38.0669C40.3003 38.1842 40.4592 38.25 40.625 38.25C40.7908 38.25 40.9497 38.1842 41.0669 38.0669C41.1842 37.9497 41.25 37.7908 41.25 37.625V36.9468C41.7684 36.879 42.2444 36.625 42.5893 36.2322C42.9342 35.8393 43.1244 35.3343 43.1244 34.8115C43.1244 34.2888 42.9342 33.7838 42.5893 33.3909C42.2444 32.998 41.7684 32.744 41.25 32.6763V30.809C41.4221 30.8396 41.5829 30.9158 41.7157 31.0295ZM39.3756 31.6881C39.3753 31.4986 39.4358 31.3139 39.5482 31.1613C39.6606 31.0087 39.8189 30.8961 40 30.8401V32.5367C39.819 32.4803 39.6608 32.3676 39.5485 32.2149C39.4362 32.0622 39.3756 31.8777 39.3756 31.6881ZM41.8744 34.8119C41.8747 35.0014 41.8142 35.1861 41.7018 35.3387C41.5894 35.4913 41.4311 35.6039 41.25 35.6599V33.9632C41.431 34.0196 41.5892 34.1324 41.7015 34.2851C41.8138 34.4377 41.8744 34.6223 41.8744 34.8119Z" fill="#23282B"/>
</g>
<defs>
<clipPath id="clip0_6239_2145">
<rect width="40" height="40" fill="white" transform="translate(10 2)"/>
</clipPath>
</defs>
</svg>
