<svg width="40" height="40" viewBox="0 0 40 40" fill="none" xmlns="http://www.w3.org/2000/svg">
<g clip-path="url(#clip0_6295_2631)">
<path d="M27.5997 1.67993L26.3997 7.67993C25.6797 7.43993 24.8797 7.35993 24.1597 7.35993C23.3597 7.35993 22.5597 7.51993 21.9197 7.67993L20.7197 1.67993H27.5997Z" stroke="#23282B" stroke-width="2" stroke-miterlimit="10" stroke-linecap="round" stroke-linejoin="round"/>
<path d="M28.6396 22.96H19.5996C17.9196 22.96 16.5596 21.6 16.5596 19.92V14.88C16.5596 10.72 19.9196 7.28003 24.1596 7.28003C28.3196 7.28003 31.7596 10.64 31.7596 14.88V19.92C31.6796 21.6 30.3196 22.96 28.6396 22.96Z" stroke="#23282B" stroke-width="2" stroke-miterlimit="10" stroke-linecap="round" stroke-linejoin="round"/>
<path d="M23.5996 1.67993L23.9996 4.07993" stroke="#23282B" stroke-width="2" stroke-miterlimit="10" stroke-linecap="round" stroke-linejoin="round"/>
<path d="M7.51953 34.32C8.39953 34.32 8.87953 34.56 9.59953 35.04C11.9195 36.48 17.1195 38.16 20.0795 38.24C23.9195 38.32 33.6795 35.28 37.3595 32.88C38.3195 32.24 38.6395 30.96 37.9995 29.92C37.4395 29.04 36.3995 28.64 35.3595 28.96L27.2795 31.76C26.7995 31.92 26.3195 32 25.8395 32H24.3195" stroke="#23282B" stroke-width="2" stroke-miterlimit="10" stroke-linecap="round" stroke-linejoin="round"/>
<path d="M18.3196 32.08H24.3996C25.5196 32.08 26.4796 31.12 26.4796 30C26.4796 28.88 25.5196 27.92 24.3996 27.92H17.2796C16.0796 27.92 14.9596 27.44 14.0796 26.64C13.1996 25.84 12.0796 25.36 10.8796 25.36H7.51961M5.75961 36.88H3.19961C2.31961 36.88 1.59961 36.16 1.59961 35.28V24.56C1.59961 23.68 2.31961 22.96 3.19961 22.96H5.75961C6.63961 22.96 7.35961 23.68 7.35961 24.56V35.28C7.35961 36.16 6.63961 36.88 5.75961 36.88Z" stroke="#23282B" stroke-width="2" stroke-miterlimit="10" stroke-linecap="round" stroke-linejoin="round"/>
<path d="M26.3996 17.8399C26.2396 18.0799 25.9196 18.3199 25.5996 18.4799C25.2796 18.6399 24.8796 18.7199 24.3996 18.7999V19.5199C24.3996 19.5999 24.3996 19.6799 24.3196 19.7599C24.2396 19.8399 24.1596 19.8399 24.0796 19.8399C23.9996 19.8399 23.9196 19.8399 23.8396 19.7599C23.7596 19.6799 23.7596 19.5999 23.7596 19.5199V18.7999C23.0396 18.7199 22.3996 18.6399 21.8396 18.3199C21.7596 18.3199 21.6796 18.2399 21.6796 18.1599C21.5996 18.0799 21.5996 17.9999 21.5996 17.9199C21.5996 17.8399 21.5996 17.6799 21.6796 17.5999C21.7596 17.5199 21.8396 17.4399 21.9996 17.4399C22.0796 17.4399 22.1596 17.4399 22.1596 17.4399C22.6396 17.6799 23.1996 17.7599 23.7596 17.8399V15.5999C23.3596 15.5199 22.9596 15.3599 22.6396 15.1999C22.3196 15.0399 22.0796 14.8799 21.9196 14.6399C21.7596 14.3999 21.5996 14.0799 21.5996 13.6799C21.5996 13.3599 21.6796 13.0399 21.8396 12.7199C21.9996 12.3999 22.2396 12.2399 22.5596 11.9999C22.8796 11.8399 23.2796 11.6799 23.7596 11.6799V11.1999C23.7596 11.1199 23.7596 11.0399 23.8396 10.9599C23.9196 10.8799 23.9996 10.8799 24.0796 10.8799C24.1596 10.8799 24.2396 10.8799 24.3196 10.9599C24.3996 11.0399 24.3996 11.1199 24.3996 11.1999V11.8399C25.0396 11.8399 25.5996 11.9999 26.0796 12.1599C26.2396 12.2399 26.3196 12.3199 26.3196 12.5599C26.3196 12.6399 26.3196 12.7199 26.2396 12.7999C26.1596 12.8799 26.0796 12.9599 25.9996 12.9599C25.9996 12.9599 25.9196 12.9599 25.8396 12.9599C25.4396 12.7999 24.9596 12.7199 24.3996 12.7199V15.0399C24.8796 15.1199 25.2796 15.2799 25.5196 15.3599C25.7596 15.4399 26.0796 15.6799 26.3196 15.9199C26.5596 16.1599 26.6396 16.4799 26.6396 16.9599C26.6396 17.2799 26.5596 17.5999 26.3996 17.8399ZM22.9596 14.4799C23.1996 14.6399 23.5196 14.7999 23.9196 14.8799V12.7999C23.5196 12.8799 23.1996 12.9599 22.9596 13.1199C22.7196 13.2799 22.6396 13.5199 22.6396 13.8399C22.6396 14.0799 22.7196 14.3199 22.9596 14.4799ZM25.8396 16.8799C25.8396 16.6399 25.7596 16.3999 25.5196 16.3199C25.2796 16.2399 24.9596 16.0799 24.4796 15.9199V17.9999C25.3596 17.9199 25.8396 17.5199 25.8396 16.8799Z" fill="#23282B"/>
</g>
<defs>
<clipPath id="clip0_6295_2631">
<rect width="40" height="40" fill="white"/>
</clipPath>
</defs>
</svg>
