<svg width="40" height="40" viewBox="0 0 40 40" fill="none" xmlns="http://www.w3.org/2000/svg">
<g clip-path="url(#clip0_6668_5816)">
<path d="M27.6007 1.67999L26.4007 7.67999C25.6807 7.43999 24.8807 7.35999 24.1607 7.35999C23.3607 7.35999 22.5607 7.51999 21.9207 7.67999L20.7207 1.67999H27.6007Z" stroke="#E5E5E5" stroke-width="2" stroke-miterlimit="10" stroke-linecap="round" stroke-linejoin="round"/>
<path d="M28.6405 22.96H19.6005C17.9205 22.96 16.5605 21.6 16.5605 19.92V14.88C16.5605 10.72 19.9205 7.28003 24.1605 7.28003C28.3205 7.28003 31.7605 10.64 31.7605 14.88V19.92C31.6805 21.6 30.3205 22.96 28.6405 22.96Z" stroke="#E5E5E5" stroke-width="2" stroke-miterlimit="10" stroke-linecap="round" stroke-linejoin="round"/>
<path d="M23.5996 1.67999L23.9996 4.07999" stroke="#E5E5E5" stroke-width="2" stroke-miterlimit="10" stroke-linecap="round" stroke-linejoin="round"/>
<path d="M7.51953 34.32C8.39953 34.32 8.87953 34.56 9.59953 35.04C11.9195 36.48 17.1195 38.16 20.0795 38.24C23.9195 38.32 33.6795 35.28 37.3595 32.88C38.3195 32.24 38.6395 30.96 37.9995 29.92C37.4395 29.04 36.3995 28.64 35.3595 28.96L27.2795 31.76C26.7995 31.92 26.3195 32 25.8395 32H24.3195" stroke="#E5E5E5" stroke-width="2" stroke-miterlimit="10" stroke-linecap="round" stroke-linejoin="round"/>
<path d="M18.3196 32.08H24.3996C25.5196 32.08 26.4796 31.12 26.4796 30C26.4796 28.88 25.5196 27.92 24.3996 27.92H17.2796C16.0796 27.92 14.9596 27.44 14.0796 26.64C13.1996 25.84 12.0796 25.36 10.8796 25.36H7.51961M5.75961 36.88H3.19961C2.31961 36.88 1.59961 36.16 1.59961 35.28V24.56C1.59961 23.68 2.31961 22.96 3.19961 22.96H5.75961C6.63961 22.96 7.35961 23.68 7.35961 24.56V35.28C7.35961 36.16 6.63961 36.88 5.75961 36.88Z" stroke="#E5E5E5" stroke-width="2" stroke-miterlimit="10" stroke-linecap="round" stroke-linejoin="round"/>
<path d="M26.3996 17.84C26.2396 18.08 25.9196 18.32 25.5996 18.48C25.2796 18.64 24.8796 18.72 24.3996 18.8V19.52C24.3996 19.6 24.3996 19.68 24.3196 19.76C24.2396 19.84 24.1596 19.84 24.0796 19.84C23.9996 19.84 23.9196 19.84 23.8396 19.76C23.7596 19.68 23.7596 19.6 23.7596 19.52V18.8C23.0396 18.72 22.3996 18.64 21.8396 18.32C21.7596 18.32 21.6796 18.24 21.6796 18.16C21.5996 18.08 21.5996 18 21.5996 17.92C21.5996 17.84 21.5996 17.68 21.6796 17.6C21.7596 17.52 21.8396 17.44 21.9996 17.44C22.0796 17.44 22.1596 17.44 22.1596 17.44C22.6396 17.68 23.1996 17.76 23.7596 17.84V15.6C23.3596 15.52 22.9596 15.36 22.6396 15.2C22.3196 15.04 22.0796 14.88 21.9196 14.64C21.7596 14.4 21.5996 14.08 21.5996 13.68C21.5996 13.36 21.6796 13.04 21.8396 12.72C21.9996 12.4 22.2396 12.24 22.5596 12C22.8796 11.84 23.2796 11.68 23.7596 11.68V11.2C23.7596 11.12 23.7596 11.04 23.8396 10.96C23.9196 10.88 23.9996 10.88 24.0796 10.88C24.1596 10.88 24.2396 10.88 24.3196 10.96C24.3996 11.04 24.3996 11.12 24.3996 11.2V11.84C25.0396 11.84 25.5996 12 26.0796 12.16C26.2396 12.24 26.3196 12.32 26.3196 12.56C26.3196 12.64 26.3196 12.72 26.2396 12.8C26.1596 12.88 26.0796 12.96 25.9996 12.96C25.9996 12.96 25.9196 12.96 25.8396 12.96C25.4396 12.8 24.9596 12.72 24.3996 12.72V15.04C24.8796 15.12 25.2796 15.28 25.5196 15.36C25.7596 15.44 26.0796 15.68 26.3196 15.92C26.5596 16.16 26.6396 16.48 26.6396 16.96C26.6396 17.28 26.5596 17.6 26.3996 17.84ZM22.9596 14.48C23.1996 14.64 23.5196 14.8 23.9196 14.88V12.8C23.5196 12.88 23.1996 12.96 22.9596 13.12C22.7196 13.28 22.6396 13.52 22.6396 13.84C22.6396 14.08 22.7196 14.32 22.9596 14.48ZM25.8396 16.88C25.8396 16.64 25.7596 16.4 25.5196 16.32C25.2796 16.24 24.9596 16.08 24.4796 15.92V18C25.3596 17.92 25.8396 17.52 25.8396 16.88Z" fill="#E5E5E5"/>
</g>
<defs>
<clipPath id="clip0_6668_5816">
<rect width="40" height="40" fill="white"/>
</clipPath>
</defs>
</svg>
