<svg width="60" height="40" viewBox="0 0 60 40" fill="none" xmlns="http://www.w3.org/2000/svg">
<path d="M38.3636 11.394C35.9394 11.394 34 13.3334 34 15.7577V17.0304H35.2727C37.697 17.0304 39.6364 15.091 39.6364 12.6668V11.394H38.3636Z" stroke="#23282B" stroke-width="0.909091" stroke-miterlimit="10" stroke-linecap="round" stroke-linejoin="round"/>
<path d="M36.6661 14.4243L33.5752 17.5152C32.3025 18.788 31.5752 20.5455 31.5752 22.3637V23.5152M42.8479 18.3637C41.2722 17.4546 39.3328 18.0001 38.4237 19.5152L37.8782 20.3031L38.7267 20.788C40.3025 21.697 42.2419 21.1516 43.151 19.6364L43.6358 18.788L42.8479 18.3637Z" stroke="#23282B" stroke-width="0.909091" stroke-miterlimit="10" stroke-linecap="round" stroke-linejoin="round"/>
<path d="M40.6067 19.6363L37.4552 20.4848C36.1825 20.8485 35.031 21.6363 34.3643 22.7879L33.9401 23.5151M17.1522 18.3636C18.728 17.4545 20.6673 18 21.5764 19.5151L22.0613 20.3636L21.2128 20.8485C19.637 21.7576 17.6977 21.2121 16.7886 19.6969L16.3037 18.8485L17.1522 18.3636Z" stroke="#23282B" stroke-width="0.909091" stroke-miterlimit="10" stroke-linecap="round" stroke-linejoin="round"/>
<path d="M19.3936 19.6365L22.5451 20.485C23.8178 20.8486 24.9693 21.6365 25.636 22.788L26.0602 23.5153M21.636 11.394C24.0602 11.394 25.9996 13.3334 25.9996 15.7577V17.0304H24.7269C22.3026 17.0304 20.3633 15.091 20.3633 12.6668V11.394H21.636Z" stroke="#23282B" stroke-width="0.909091" stroke-miterlimit="10" stroke-linecap="round" stroke-linejoin="round"/>
<path d="M23.333 14.4243L26.4239 17.5152C27.6966 18.788 28.4239 20.5455 28.4239 22.3637V23.5152M29.9997 23.5152V12.6667" stroke="#23282B" stroke-width="0.909091" stroke-miterlimit="10" stroke-linecap="round" stroke-linejoin="round"/>
<path d="M29.9998 12.7273C33.1796 12.7273 35.7573 10.1496 35.7573 6.96973C35.7573 3.78991 33.1796 1.21216 29.9998 1.21216C26.8199 1.21216 24.2422 3.78991 24.2422 6.96973C24.2422 10.1496 26.8199 12.7273 29.9998 12.7273Z" stroke="#23282B" stroke-width="0.909091" stroke-miterlimit="10" stroke-linecap="round" stroke-linejoin="round"/>
<path d="M29.9999 10.9091C32.1756 10.9091 33.9393 9.14533 33.9393 6.96967C33.9393 4.794 32.1756 3.03027 29.9999 3.03027C27.8243 3.03027 26.0605 4.794 26.0605 6.96967C26.0605 9.14533 27.8243 10.9091 29.9999 10.9091Z" stroke="#23282B" stroke-width="0.909091" stroke-miterlimit="10" stroke-linecap="round" stroke-linejoin="round"/>
<path d="M30.4849 7.75766C30.4849 7.63645 30.4243 7.51523 30.3637 7.45463C30.3031 7.39402 30.1818 7.33341 30 7.27281C29.8182 7.2122 29.697 7.1516 29.5758 7.09099C29.4546 7.03038 29.3334 6.96978 29.2728 6.84857C29.2122 6.78796 29.0909 6.66675 29.0909 6.54554C29.0303 6.42432 29.0303 6.30311 29.0303 6.12129C29.0303 5.87887 29.0909 5.63645 29.2728 5.45463C29.4546 5.27281 29.697 5.2122 29.9394 5.1516V4.66675H30.3031V5.2122C30.6061 5.27281 30.7879 5.39402 30.9697 5.57584C31.1515 5.75766 31.2122 6.00008 31.2122 6.30311H30.5455C30.5455 6.12129 30.4849 6.00008 30.4243 5.87887C30.3637 5.75766 30.2425 5.75766 30.1212 5.75766C30 5.75766 29.8788 5.81826 29.8182 5.87887C29.7576 5.93948 29.697 6.06069 29.697 6.1819C29.697 6.30311 29.7576 6.42432 29.8182 6.48493C29.8788 6.54554 30 6.60614 30.1818 6.72735C30.3637 6.84857 30.5455 6.84857 30.6667 6.96978C30.7879 7.09099 30.9091 7.09099 30.9697 7.2122C31.0303 7.27281 31.0909 7.39402 31.1515 7.51523C31.2122 7.63645 31.2122 7.75766 31.2122 7.87887C31.2122 8.12129 31.1515 8.36372 30.9697 8.54554C30.7879 8.72735 30.5455 8.78796 30.3031 8.84857V9.33341H29.9394V8.84857C29.6364 8.78796 29.3334 8.72735 29.2122 8.48493C29.0303 8.30311 28.9697 8.00008 28.9697 7.69705H29.6364C29.6364 7.87887 29.697 8.00008 29.7576 8.12129C29.8182 8.24251 30 8.24251 30.1212 8.24251C30.2425 8.24251 30.3637 8.1819 30.4243 8.12129C30.4243 8.00008 30.4849 7.87887 30.4849 7.75766Z" fill="#23282B"/>
<path d="M45.2117 32.4242V33.7575M42.8481 33.7575V29.1514H41.4542L44.0602 25.5757L46.6057 29.1514H45.2117V30.9696M17.1511 32.4242V33.7575M14.7875 33.7575V29.1514H13.3936L15.939 25.5757L18.5451 29.1514H17.1511V30.9696" stroke="#23282B" stroke-width="0.909091" stroke-miterlimit="10" stroke-linecap="round" stroke-linejoin="round"/>
<path d="M22.2422 23.5151H37.8179V26.0606H22.2422V23.5151ZM33.9998 38.7879H25.9998C25.3937 38.7879 24.9089 38.3636 24.8482 37.7576L23.6967 26.0606H36.3634L35.2119 37.7576C35.0907 38.3636 34.6058 38.7879 33.9998 38.7879Z" stroke="#23282B" stroke-width="0.909091" stroke-miterlimit="10" stroke-linecap="round" stroke-linejoin="round"/>
<path d="M25.8789 30.6667L26.5456 37.0304H30.9092" stroke="#23282B" stroke-width="0.909091" stroke-miterlimit="10" stroke-linecap="round" stroke-linejoin="round"/>
</svg>
