<svg width="60" height="40" viewBox="0 0 60 40" fill="none" xmlns="http://www.w3.org/2000/svg">
<path d="M38.3636 11.3939C35.9394 11.3939 34 13.3333 34 15.7576V17.0303H35.2727C37.697 17.0303 39.6364 15.0909 39.6364 12.6666V11.3939H38.3636Z" stroke="#E5E5E5" stroke-width="0.909091" stroke-miterlimit="10" stroke-linecap="round" stroke-linejoin="round"/>
<path d="M36.6671 14.4243L33.5762 17.5152C32.3034 18.788 31.5762 20.5455 31.5762 22.3637V23.5152M42.8489 18.3637C41.2731 17.4546 39.3337 18.0001 38.4247 19.5152L37.8792 20.3031L38.7277 20.788C40.3034 21.697 42.2428 21.1516 43.1519 19.6364L43.6368 18.788L42.8489 18.3637Z" stroke="#E5E5E5" stroke-width="0.909091" stroke-miterlimit="10" stroke-linecap="round" stroke-linejoin="round"/>
<path d="M40.6058 19.6363L37.4543 20.4848C36.1815 20.8485 35.03 21.6363 34.3633 22.7879L33.9391 23.5151M17.1512 18.3636C18.727 17.4545 20.6664 18 21.5755 19.5151L22.0603 20.3636L21.2118 20.8485C19.6361 21.7576 17.6967 21.2121 16.7876 19.6969L16.3027 18.8485L17.1512 18.3636Z" stroke="#E5E5E5" stroke-width="0.909091" stroke-miterlimit="10" stroke-linecap="round" stroke-linejoin="round"/>
<path d="M19.3945 19.6363L22.546 20.4848C23.8188 20.8485 24.9703 21.6363 25.637 22.7879L26.0612 23.5151M21.637 11.3939C24.0612 11.3939 26.0006 13.3333 26.0006 15.7576V17.0303H24.7279C22.3036 17.0303 20.3642 15.0909 20.3642 12.6666V11.3939H21.637Z" stroke="#E5E5E5" stroke-width="0.909091" stroke-miterlimit="10" stroke-linecap="round" stroke-linejoin="round"/>
<path d="M23.334 14.4242L26.4249 17.5151C27.6976 18.7878 28.4249 20.5454 28.4249 22.3636V23.5151M30.0007 23.5151V12.6666" stroke="#E5E5E5" stroke-width="0.909091" stroke-miterlimit="10" stroke-linecap="round" stroke-linejoin="round"/>
<path d="M29.9998 12.7273C33.1796 12.7273 35.7573 10.1496 35.7573 6.96973C35.7573 3.78991 33.1796 1.21216 29.9998 1.21216C26.8199 1.21216 24.2422 3.78991 24.2422 6.96973C24.2422 10.1496 26.8199 12.7273 29.9998 12.7273Z" stroke="#E5E5E5" stroke-width="0.909091" stroke-miterlimit="10" stroke-linecap="round" stroke-linejoin="round"/>
<path d="M29.9999 10.9091C32.1756 10.9091 33.9393 9.14533 33.9393 6.96967C33.9393 4.794 32.1756 3.03027 29.9999 3.03027C27.8243 3.03027 26.0605 4.794 26.0605 6.96967C26.0605 9.14533 27.8243 10.9091 29.9999 10.9091Z" stroke="#E5E5E5" stroke-width="0.909091" stroke-miterlimit="10" stroke-linecap="round" stroke-linejoin="round"/>
<path d="M30.4839 7.75754C30.4839 7.63632 30.4233 7.51511 30.3627 7.4545C30.3021 7.3939 30.1809 7.33329 29.9991 7.27269C29.8172 7.21208 29.696 7.15147 29.5748 7.09087C29.4536 7.03026 29.3324 6.96966 29.2718 6.84844C29.2112 6.78784 29.09 6.66663 29.09 6.54541C29.0294 6.4242 29.0294 6.30299 29.0294 6.12117C29.0294 5.87875 29.09 5.63632 29.2718 5.4545C29.4536 5.27269 29.696 5.21208 29.9384 5.15147V4.66663H30.3021V5.21208C30.6051 5.27269 30.7869 5.3939 30.9687 5.57572C31.1506 5.75754 31.2112 5.99996 31.2112 6.30299H30.5445C30.5445 6.12117 30.4839 5.99996 30.4233 5.87875C30.3627 5.75754 30.2415 5.75754 30.1203 5.75754C29.9991 5.75754 29.8778 5.81814 29.8172 5.87875C29.7566 5.93935 29.696 6.06057 29.696 6.18178C29.696 6.30299 29.7566 6.4242 29.8172 6.48481C29.8778 6.54541 29.9991 6.60602 30.1809 6.72723C30.3627 6.84844 30.5445 6.84844 30.6657 6.96966C30.7869 7.09087 30.9081 7.09087 30.9687 7.21208C31.0294 7.27269 31.09 7.3939 31.1506 7.51511C31.2112 7.63632 31.2112 7.75754 31.2112 7.87875C31.2112 8.12117 31.1506 8.3636 30.9687 8.54541C30.7869 8.72723 30.5445 8.78784 30.3021 8.84844V9.33329H29.9384V8.84844C29.6354 8.78784 29.3324 8.72723 29.2112 8.48481C29.0294 8.30299 28.9688 7.99996 28.9688 7.69693H29.6354C29.6354 7.87875 29.696 7.99996 29.7566 8.12117C29.8172 8.24238 29.9991 8.24238 30.1203 8.24238C30.2415 8.24238 30.3627 8.18178 30.4233 8.12117C30.4233 7.99996 30.4839 7.87875 30.4839 7.75754Z" fill="#E5E5E5"/>
<path d="M45.2127 32.4242V33.7575M42.8491 33.7575V29.1514H41.4551L44.0612 25.5757L46.6067 29.1514H45.2127V30.9696M17.1521 32.4242V33.7575M14.7885 33.7575V29.1514H13.3945L15.94 25.5757L18.546 29.1514H17.1521V30.9696" stroke="#E5E5E5" stroke-width="0.909091" stroke-miterlimit="10" stroke-linecap="round" stroke-linejoin="round"/>
<path d="M22.2422 23.5151H37.8179V26.0606H22.2422V23.5151ZM33.9998 38.7879H25.9998C25.3937 38.7879 24.9089 38.3636 24.8482 37.7576L23.6967 26.0606H36.3634L35.2119 37.7576C35.0907 38.3636 34.6058 38.7879 33.9998 38.7879Z" stroke="#E5E5E5" stroke-width="0.909091" stroke-miterlimit="10" stroke-linecap="round" stroke-linejoin="round"/>
<path d="M25.8789 30.6666L26.5456 37.0303H30.9092" stroke="#E5E5E5" stroke-width="0.909091" stroke-miterlimit="10" stroke-linecap="round" stroke-linejoin="round"/>
</svg>
