<svg width="54" height="58" viewBox="0 0 54 58" fill="none" xmlns="http://www.w3.org/2000/svg">
<path d="M14.3914 17.7541C14.3238 17.7223 14.2491 17.7081 14.1744 17.7129C14.0998 17.7177 14.0276 17.7413 13.9645 17.7816C13.9038 17.8219 13.8541 17.8768 13.8199 17.9412C13.7858 18.0056 13.7682 18.0775 13.7689 18.1504C13.7689 18.3291 13.8864 18.5029 14.0552 18.5729C14.5489 18.7835 15.0858 18.9129 15.6508 18.9579V19.4517C15.6508 19.6517 15.7902 19.7917 15.9902 19.7917C16.1915 19.7917 16.3377 19.6486 16.3377 19.4523V18.9585C17.6428 18.8498 18.2278 18.046 18.2278 17.2835C18.2278 16.136 17.3428 15.8072 16.3377 15.5647V13.7896C16.7159 13.8121 17.0753 13.8828 17.4034 13.9984C17.5472 14.0565 17.6878 14.0453 17.8015 13.969C17.8604 13.9273 17.9082 13.8719 17.9411 13.8077C17.9739 13.7435 17.9908 13.6724 17.9903 13.6002C17.9903 13.3965 17.8903 13.2534 17.7015 13.1859C17.3028 13.0334 16.844 12.9421 16.3377 12.914V12.439C16.3382 12.3932 16.3296 12.3478 16.3123 12.3054C16.295 12.263 16.2695 12.2245 16.2371 12.1921C16.2047 12.1597 16.1662 12.1342 16.1238 12.1169C16.0814 12.0996 16.036 12.0909 15.9902 12.0915C15.7965 12.0915 15.6508 12.2408 15.6508 12.4383V12.9265C14.3914 13.0665 13.8258 13.9015 13.8258 14.6809C13.8258 15.7547 14.7552 16.1153 15.6508 16.3572V18.0679C15.2159 18.0376 14.7897 17.9314 14.3914 17.7541ZM14.7583 14.6234C14.7583 14.0721 15.3183 13.8871 15.6508 13.8253V15.3934C15.0971 15.2365 14.7583 15.0422 14.7583 14.6234ZM17.304 17.2341C17.304 17.7235 16.9878 17.996 16.3377 18.0654V16.531C16.7953 16.6572 17.304 16.8285 17.304 17.2341ZM20.2441 15.2403H26.1281C26.2938 15.2403 26.4528 15.1744 26.57 15.0572C26.6872 14.94 26.7531 14.781 26.7531 14.6153C26.7531 14.4495 26.6872 14.2905 26.57 14.1733C26.4528 14.0561 26.2938 13.9903 26.1281 13.9903H20.2441C20.0784 13.9903 19.9194 14.0561 19.8022 14.1733C19.6849 14.2905 19.6191 14.4495 19.6191 14.6153C19.6191 14.781 19.6849 14.94 19.8022 15.0572C19.9194 15.1744 20.0784 15.2403 20.2441 15.2403ZM20.2441 19.0054H26.1281C26.2938 19.0054 26.4528 18.9396 26.57 18.8224C26.6872 18.7051 26.7531 18.5462 26.7531 18.3804C26.7531 18.2146 26.6872 18.0557 26.57 17.9384C26.4528 17.8212 26.2938 17.7554 26.1281 17.7554H20.2441C20.0784 17.7554 19.9194 17.8212 19.8022 17.9384C19.6849 18.0557 19.6191 18.2146 19.6191 18.3804C19.6191 18.5462 19.6849 18.7051 19.8022 18.8224C19.9194 18.9396 20.0784 19.0054 20.2441 19.0054ZM14.4021 22.1449C14.4021 22.3107 14.4679 22.4696 14.5851 22.5868C14.7023 22.7041 14.8613 22.7699 15.0271 22.7699H33.287C33.4528 22.7699 33.6118 22.7041 33.729 22.5868C33.8462 22.4696 33.912 22.3107 33.912 22.1449C33.912 21.9791 33.8462 21.8201 33.729 21.7029C33.6118 21.5857 33.4528 21.5199 33.287 21.5199H15.0271C14.8613 21.5199 14.7023 21.5857 14.5851 21.7029C14.4679 21.8201 14.4021 21.9791 14.4021 22.1449ZM33.287 25.285H15.0271C14.8613 25.285 14.7023 25.3508 14.5851 25.4681C14.4679 25.5853 14.4021 25.7442 14.4021 25.91C14.4021 26.0758 14.4679 26.2347 14.5851 26.352C14.7023 26.4692 14.8613 26.535 15.0271 26.535H33.287C33.4528 26.535 33.6118 26.4692 33.729 26.352C33.8462 26.2347 33.912 26.0758 33.912 25.91C33.912 25.7442 33.8462 25.5853 33.729 25.4681C33.6118 25.3508 33.4528 25.285 33.287 25.285ZM17.6072 32.8777C16.8259 32.8777 16.3215 33.4321 16.3215 34.2903C16.3215 35.1478 16.8265 35.7022 17.6072 35.7022C18.3884 35.7022 18.8934 35.1478 18.8934 34.2903C18.8934 33.4321 18.3884 32.8777 17.6072 32.8777ZM18.0897 34.2903C18.0897 34.6015 17.9628 34.934 17.6072 34.934C17.2521 34.934 17.1259 34.6015 17.1259 34.2903C17.1259 33.979 17.2521 33.6465 17.6072 33.6465C17.9634 33.6465 18.0897 33.979 18.0897 34.2903ZM14.4896 35.5366C14.5308 35.5767 14.5805 35.6071 14.635 35.6255C14.6895 35.6439 14.7475 35.6498 14.8046 35.6428C14.8655 35.6342 14.9238 35.6122 14.9752 35.5782C15.0266 35.5443 15.0697 35.4993 15.1015 35.4466L17.9353 30.9077C18.0509 30.7264 18.0309 30.5164 17.8865 30.3951C17.8409 30.3582 17.788 30.3313 17.7312 30.3162C17.6744 30.3011 17.6151 30.2982 17.5572 30.3076C17.5014 30.3163 17.4482 30.337 17.4012 30.3683C17.3543 30.3996 17.3147 30.4408 17.2853 30.4889L14.4289 35.0565C14.3817 35.1311 14.3619 35.2198 14.373 35.3074C14.3841 35.395 14.4253 35.476 14.4896 35.5366ZM16.0446 31.6589C16.0446 30.8008 15.5402 30.2464 14.7589 30.2464C13.9777 30.2464 13.4727 30.8008 13.4727 31.6589C13.4727 32.5171 13.9777 33.0715 14.7589 33.0715C15.5402 33.0715 16.0446 32.5171 16.0446 31.6589ZM15.2408 31.6589C15.2408 31.9702 15.1146 32.3027 14.7589 32.3027C14.4027 32.3027 14.2764 31.9702 14.2764 31.6589C14.2764 31.3477 14.4033 31.0152 14.7589 31.0152C15.1146 31.0152 15.2408 31.3477 15.2408 31.6589ZM33.287 30.452H21.5923C21.4265 30.452 21.2675 30.5179 21.1503 30.6351C21.0331 30.7523 20.9673 30.9113 20.9673 31.077C20.9673 31.2428 21.0331 31.4018 21.1503 31.519C21.2675 31.6362 21.4265 31.7021 21.5923 31.7021H33.287C33.4528 31.7021 33.6118 31.6362 33.729 31.519C33.8462 31.4018 33.912 31.2428 33.912 31.077C33.912 30.9113 33.8462 30.7523 33.729 30.6351C33.6118 30.5179 33.4528 30.452 33.287 30.452ZM34.1277 39.2242C34.1277 39.7636 34.5639 40.0148 35.279 40.218V38.1929C34.8477 38.2729 34.1277 38.5135 34.1277 39.2242ZM36.1765 41.7024V43.6837C37.0146 43.5943 37.4228 43.2424 37.4228 42.6105C37.4228 42.0868 36.7678 41.8661 36.1765 41.7024Z" fill="#E5E5E5"/>
<path d="M38.3165 33.2989V17.2765C38.3165 17.1108 38.2506 16.9518 38.1334 16.8346L30.4819 9.18313C30.3605 9.07241 30.2041 9.00763 30.04 9H13.4076C12.5043 9.00099 11.6382 9.36024 10.9994 9.99894C10.3606 10.6376 10.0012 11.5036 10 12.407V43.1536C10.001 44.057 10.3603 44.9232 10.9992 45.562C11.638 46.2009 12.5042 46.5602 13.4076 46.5612H29.965C30.7147 47.3331 31.6117 47.9466 32.6028 48.3656C33.594 48.7845 34.6591 49.0002 35.7352 49C40.1853 49 43.8042 45.3811 43.8042 40.931C43.8042 37.389 41.5029 34.3777 38.3165 33.2989ZM13.4076 45.3111C12.8356 45.3105 12.2872 45.0829 11.8827 44.6785C11.4782 44.274 11.2507 43.7256 11.25 43.1536V12.407C11.2509 11.8351 11.4785 11.287 11.883 10.8827C12.2874 10.4785 12.8358 10.2512 13.4076 10.2507H29.4144V14.5289C29.4155 15.4323 29.7749 16.2984 30.4137 16.9372C31.0525 17.576 31.9186 17.9354 32.822 17.9365H37.0665V32.987C36.6268 32.9107 36.1815 32.871 35.7352 32.8682C34.0664 32.8682 32.5151 33.377 31.2275 34.247H21.5935C21.4277 34.247 21.2687 34.3129 21.1515 34.4301C21.0343 34.5473 20.9685 34.7063 20.9685 34.8721C20.9685 35.0378 21.0343 35.1968 21.1515 35.314C21.2687 35.4312 21.4277 35.4971 21.5935 35.4971H29.7919C29.1512 36.1928 28.6378 36.9956 28.2749 37.869H15.0283C14.8625 37.869 14.7035 37.9349 14.5863 38.0521C14.4691 38.1693 14.4033 38.3283 14.4033 38.494C14.4033 38.6598 14.4691 38.8188 14.5863 38.936C14.7035 39.0532 14.8625 39.1191 15.0283 39.1191H27.8799C27.7402 39.7132 27.6687 40.3213 27.6668 40.9316C27.6668 42.5461 28.1481 44.048 28.9681 45.3111H13.4076ZM36.1771 44.8499V45.4874C36.1771 45.7443 35.9864 45.9312 35.7233 45.9312C35.4627 45.9312 35.2795 45.7486 35.2795 45.4874V44.8499C34.5679 44.7957 33.8697 44.6268 33.212 44.3499C33.1033 44.3038 33.0102 44.2273 32.9439 44.1297C32.8776 44.032 32.8409 43.9172 32.8382 43.7992C32.8382 43.6023 32.9338 43.4217 33.0938 43.318C33.1759 43.2653 33.27 43.2344 33.3673 43.2281C33.4646 43.2217 33.5619 43.2402 33.6501 43.2817C34.1657 43.511 34.7173 43.6485 35.2802 43.688V41.4754C34.1176 41.161 32.912 40.6929 32.912 39.2984C32.912 38.2859 33.6457 37.2028 35.2802 37.0196V36.3896C35.2802 36.1302 35.4708 35.9352 35.7233 35.9352C35.9777 35.9352 36.1777 36.1352 36.1777 36.3896V37.0028C36.834 37.0403 37.4277 37.159 37.944 37.3553C38.1903 37.4434 38.3215 37.6309 38.3215 37.8972C38.3215 38.0909 38.2265 38.2747 38.0746 38.3784C37.9259 38.4784 37.7427 38.4909 37.5559 38.4159C37.1112 38.2624 36.6474 38.1713 36.1777 38.1453V40.4416C37.4815 40.7566 38.6296 41.1841 38.6296 42.6742C38.6296 43.6642 37.8702 44.7074 36.1777 44.8492L36.1771 44.8499Z" fill="#E5E5E5"/>
</svg>
