<svg width="54" height="58" viewBox="0 0 54 58" fill="none" xmlns="http://www.w3.org/2000/svg">
<path d="M14.3924 17.754C14.3247 17.7221 14.2501 17.7079 14.1754 17.7127C14.1008 17.7176 14.0286 17.7412 13.9655 17.7815C13.9048 17.8218 13.8551 17.8767 13.8209 17.9411C13.7867 18.0055 13.7692 18.0774 13.7699 18.1503C13.7699 18.329 13.8874 18.5028 14.0562 18.5728C14.5499 18.7834 15.0868 18.9128 15.6518 18.9578V19.4516C15.6518 19.6516 15.7912 19.7916 15.9912 19.7916C16.1925 19.7916 16.3387 19.6484 16.3387 19.4522V18.9584C17.6438 18.8497 18.2288 18.0459 18.2288 17.2834C18.2288 16.1358 17.3438 15.8071 16.3387 15.5646V13.7895C16.7169 13.812 17.0762 13.8826 17.4044 13.9983C17.5481 14.0564 17.6888 14.0451 17.8025 13.9689C17.8613 13.9271 17.9092 13.8718 17.9421 13.8076C17.9749 13.7434 17.9918 13.6722 17.9913 13.6001C17.9913 13.3964 17.8913 13.2532 17.7025 13.1857C17.3038 13.0332 16.845 12.942 16.3387 12.9139V12.4388C16.3392 12.3931 16.3306 12.3477 16.3133 12.3053C16.296 12.2629 16.2704 12.2244 16.2381 12.192C16.2057 12.1596 16.1672 12.134 16.1248 12.1168C16.0824 12.0995 16.037 12.0908 15.9912 12.0913C15.7975 12.0913 15.6518 12.2407 15.6518 12.4382V12.9264C14.3924 13.0664 13.8268 13.9014 13.8268 14.6808C13.8268 15.7546 14.7562 16.1152 15.6518 16.3571V18.0678C15.2169 18.0375 14.7907 17.9313 14.3924 17.754ZM14.7593 14.6233C14.7593 14.072 15.3193 13.887 15.6518 13.8251V15.3933C15.0981 15.2364 14.7593 15.042 14.7593 14.6233ZM17.305 17.234C17.305 17.7234 16.9887 17.9959 16.3387 18.0653V16.5308C16.7962 16.6571 17.305 16.8284 17.305 17.234ZM20.2451 15.2402H26.129C26.2948 15.2402 26.4538 15.1743 26.571 15.0571C26.6882 14.9399 26.754 14.7809 26.754 14.6152C26.754 14.4494 26.6882 14.2904 26.571 14.1732C26.4538 14.056 26.2948 13.9901 26.129 13.9901H20.2451C20.0793 13.9901 19.9204 14.056 19.8031 14.1732C19.6859 14.2904 19.6201 14.4494 19.6201 14.6152C19.6201 14.7809 19.6859 14.9399 19.8031 15.0571C19.9204 15.1743 20.0793 15.2402 20.2451 15.2402ZM20.2451 19.0053H26.129C26.2948 19.0053 26.4538 18.9394 26.571 18.8222C26.6882 18.705 26.754 18.546 26.754 18.3803C26.754 18.2145 26.6882 18.0555 26.571 17.9383C26.4538 17.8211 26.2948 17.7553 26.129 17.7553H20.2451C20.0793 17.7553 19.9204 17.8211 19.8031 17.9383C19.6859 18.0555 19.6201 18.2145 19.6201 18.3803C19.6201 18.546 19.6859 18.705 19.8031 18.8222C19.9204 18.9394 20.0793 19.0053 20.2451 19.0053ZM14.403 22.1448C14.403 22.3105 14.4689 22.4695 14.5861 22.5867C14.7033 22.7039 14.8623 22.7698 15.0281 22.7698H33.288C33.4538 22.7698 33.6127 22.7039 33.73 22.5867C33.8472 22.4695 33.913 22.3105 33.913 22.1448C33.913 21.979 33.8472 21.82 33.73 21.7028C33.6127 21.5856 33.4538 21.5197 33.288 21.5197H15.0281C14.8623 21.5197 14.7033 21.5856 14.5861 21.7028C14.4689 21.82 14.403 21.979 14.403 22.1448ZM33.288 25.2849H15.0281C14.8623 25.2849 14.7033 25.3507 14.5861 25.4679C14.4689 25.5851 14.403 25.7441 14.403 25.9099C14.403 26.0757 14.4689 26.2346 14.5861 26.3518C14.7033 26.4691 14.8623 26.5349 15.0281 26.5349H33.288C33.4538 26.5349 33.6127 26.4691 33.73 26.3518C33.8472 26.2346 33.913 26.0757 33.913 25.9099C33.913 25.7441 33.8472 25.5851 33.73 25.4679C33.6127 25.3507 33.4538 25.2849 33.288 25.2849ZM17.6081 32.8776C16.8269 32.8776 16.3225 33.432 16.3225 34.2901C16.3225 35.1477 16.8275 35.7021 17.6081 35.7021C18.3894 35.7021 18.8944 35.1477 18.8944 34.2901C18.8944 33.432 18.3894 32.8776 17.6081 32.8776ZM18.0907 34.2901C18.0907 34.6014 17.9638 34.9339 17.6081 34.9339C17.2531 34.9339 17.1269 34.6014 17.1269 34.2901C17.1269 33.9789 17.2531 33.6464 17.6081 33.6464C17.9644 33.6464 18.0907 33.9789 18.0907 34.2901ZM14.4905 35.5364C14.5317 35.5766 14.5814 35.607 14.636 35.6254C14.6905 35.6438 14.7484 35.6497 14.8055 35.6427C14.8665 35.6341 14.9248 35.6121 14.9762 35.5781C15.0275 35.5442 15.0707 35.4992 15.1024 35.4464L17.9363 30.9075C18.0519 30.7263 18.0319 30.5163 17.8875 30.395C17.8419 30.3581 17.7889 30.3312 17.7322 30.3161C17.6754 30.301 17.6161 30.2981 17.5581 30.3075C17.5024 30.3162 17.4492 30.3369 17.4022 30.3682C17.3553 30.3995 17.3157 30.4406 17.2863 30.4888L14.4299 35.0564C14.3827 35.131 14.3629 35.2197 14.374 35.3073C14.385 35.3949 14.4262 35.4759 14.4905 35.5364ZM16.0456 31.6588C16.0456 30.8007 15.5412 30.2463 14.7599 30.2463C13.9786 30.2463 13.4736 30.8007 13.4736 31.6588C13.4736 32.517 13.9786 33.0714 14.7599 33.0714C15.5412 33.0714 16.0456 32.517 16.0456 31.6588ZM15.2418 31.6588C15.2418 31.9701 15.1156 32.3026 14.7599 32.3026C14.4037 32.3026 14.2774 31.9701 14.2774 31.6588C14.2774 31.3476 14.4043 31.015 14.7599 31.015C15.1156 31.015 15.2418 31.3476 15.2418 31.6588ZM33.288 30.4519H21.5933C21.4275 30.4519 21.2685 30.5178 21.1513 30.635C21.0341 30.7522 20.9682 30.9112 20.9682 31.0769C20.9682 31.2427 21.0341 31.4017 21.1513 31.5189C21.2685 31.6361 21.4275 31.7019 21.5933 31.7019H33.288C33.4538 31.7019 33.6127 31.6361 33.73 31.5189C33.8472 31.4017 33.913 31.2427 33.913 31.0769C33.913 30.9112 33.8472 30.7522 33.73 30.635C33.6127 30.5178 33.4538 30.4519 33.288 30.4519ZM34.1287 39.2241C34.1287 39.7634 34.5649 40.0147 35.2799 40.2178V38.1928C34.8487 38.2728 34.1287 38.5134 34.1287 39.2241ZM36.1775 41.7023V43.6836C37.0156 43.5942 37.4238 43.2423 37.4238 42.6104C37.4238 42.0866 36.7687 41.866 36.1775 41.7023Z" fill="#23282B"/>
<path d="M38.3165 33.2989V17.2765C38.3165 17.1108 38.2506 16.9518 38.1334 16.8346L30.4819 9.18313C30.3605 9.07241 30.2041 9.00763 30.04 9H13.4076C12.5043 9.00099 11.6382 9.36024 10.9994 9.99894C10.3606 10.6376 10.0012 11.5036 10 12.407V43.1536C10.001 44.057 10.3603 44.9232 10.9992 45.562C11.638 46.2009 12.5042 46.5602 13.4076 46.5612H29.965C30.7147 47.3331 31.6117 47.9466 32.6028 48.3656C33.594 48.7845 34.6591 49.0002 35.7352 49C40.1853 49 43.8042 45.3811 43.8042 40.931C43.8042 37.389 41.5029 34.3777 38.3165 33.2989ZM13.4076 45.3111C12.8356 45.3105 12.2872 45.0829 11.8827 44.6785C11.4782 44.274 11.2507 43.7256 11.25 43.1536V12.407C11.2509 11.8351 11.4785 11.287 11.883 10.8827C12.2874 10.4785 12.8358 10.2512 13.4076 10.2507H29.4144V14.5289C29.4155 15.4323 29.7749 16.2984 30.4137 16.9372C31.0525 17.576 31.9186 17.9354 32.822 17.9365H37.0665V32.987C36.6268 32.9107 36.1815 32.871 35.7352 32.8682C34.0664 32.8682 32.5151 33.377 31.2275 34.247H21.5935C21.4277 34.247 21.2687 34.3129 21.1515 34.4301C21.0343 34.5473 20.9685 34.7063 20.9685 34.8721C20.9685 35.0378 21.0343 35.1968 21.1515 35.314C21.2687 35.4312 21.4277 35.4971 21.5935 35.4971H29.7919C29.1512 36.1928 28.6378 36.9956 28.2749 37.869H15.0283C14.8625 37.869 14.7035 37.9349 14.5863 38.0521C14.4691 38.1693 14.4033 38.3283 14.4033 38.494C14.4033 38.6598 14.4691 38.8188 14.5863 38.936C14.7035 39.0532 14.8625 39.1191 15.0283 39.1191H27.8799C27.7402 39.7132 27.6687 40.3213 27.6668 40.9316C27.6668 42.5461 28.1481 44.048 28.9681 45.3111H13.4076ZM36.1771 44.8499V45.4874C36.1771 45.7443 35.9864 45.9312 35.7233 45.9312C35.4627 45.9312 35.2795 45.7486 35.2795 45.4874V44.8499C34.5679 44.7957 33.8697 44.6268 33.212 44.3499C33.1033 44.3038 33.0102 44.2273 32.9439 44.1297C32.8776 44.032 32.8409 43.9172 32.8382 43.7992C32.8382 43.6023 32.9338 43.4217 33.0938 43.318C33.1759 43.2653 33.27 43.2344 33.3673 43.2281C33.4646 43.2217 33.5619 43.2402 33.6501 43.2817C34.1657 43.511 34.7173 43.6485 35.2802 43.688V41.4754C34.1176 41.161 32.912 40.6929 32.912 39.2984C32.912 38.2859 33.6457 37.2028 35.2802 37.0196V36.3896C35.2802 36.1302 35.4708 35.9352 35.7233 35.9352C35.9777 35.9352 36.1777 36.1352 36.1777 36.3896V37.0028C36.834 37.0403 37.4277 37.159 37.944 37.3553C38.1903 37.4434 38.3215 37.6309 38.3215 37.8972C38.3215 38.0909 38.2265 38.2747 38.0746 38.3784C37.9259 38.4784 37.7427 38.4909 37.5559 38.4159C37.1112 38.2624 36.6474 38.1713 36.1777 38.1453V40.4416C37.4815 40.7566 38.6296 41.1841 38.6296 42.6742C38.6296 43.6642 37.8702 44.7074 36.1777 44.8492L36.1771 44.8499Z" fill="#23282B"/>
</svg>
