<svg width="58" height="76" viewBox="0 0 58 76" fill="none" xmlns="http://www.w3.org/2000/svg">
<path fill-rule="evenodd" clip-rule="evenodd" d="M28.9997 20.5C28.0313 20.5 27.5363 20.8308 27.0872 21.2892C26.7738 21.6083 26.5113 22.05 25.8713 22.3958C25.2097 22.7533 24.1663 23 22.333 23C21.873 23 21.4997 23.3733 21.4997 23.8333V31.3333C21.4997 32.2875 22.1797 33.2942 23.248 34.1625C25.2972 35.8267 28.7063 37.1133 28.7063 37.1133C28.8947 37.1842 29.1047 37.1842 29.293 37.1133C29.293 37.1133 32.7022 35.8267 34.7513 34.1625C35.8197 33.2942 36.4997 32.2875 36.4997 31.3333V23.8333C36.4997 23.3733 36.1263 23 35.6663 23C33.833 23 32.7897 22.7533 32.128 22.3958C31.488 22.05 31.2255 21.6083 30.9122 21.2892C30.463 20.8308 29.968 20.5 28.9997 20.5ZM28.9997 22.1667C29.5622 22.1667 29.7338 22.4642 30.0038 22.7675C30.6722 23.52 31.5713 24.5067 34.833 24.6492V31.3333C34.833 31.5508 34.7255 31.7617 34.5772 31.975C34.3622 32.2842 34.0547 32.5825 33.7005 32.87C32.1755 34.1092 29.8205 35.11 29.0013 35.4383C28.1805 35.11 25.8238 34.1092 24.2988 32.87C23.9447 32.5825 23.6372 32.2842 23.4222 31.975C23.2738 31.7617 23.1663 31.5508 23.1663 31.3333V24.6492C26.428 24.5067 27.3272 23.52 27.9955 22.7675C28.2655 22.4642 28.4372 22.1667 28.9997 22.1667ZM31.4997 26.3333C31.2863 26.3333 31.073 26.415 30.9105 26.5775L28.1663 29.3217L27.0888 28.2442C26.7638 27.9192 26.2355 27.9192 25.9105 28.2442C25.5855 28.5692 25.5855 29.0975 25.9105 29.4225L27.5772 31.0892C27.9022 31.415 28.4305 31.415 28.7555 31.0892L32.0888 27.7558C32.4138 27.4308 32.4138 26.9025 32.0888 26.5775C31.9263 26.415 31.713 26.3333 31.4997 26.3333ZM22.1505 40.5C21.1113 40.5 19.4022 41.2067 18.0672 42.6725C17.6138 42.0308 16.8672 41.61 16.023 41.61H14.833C13.453 41.61 12.333 42.73 12.333 44.11V52.9983C12.333 54.3783 13.453 55.4983 14.833 55.4983H16.023C17.0922 55.4983 18.0047 54.825 18.3613 53.8792C19.048 54.3283 19.648 54.7217 20.2105 55.09C20.618 55.3567 21.093 55.5 21.5797 55.5H32.393C32.5613 55.5 32.7247 55.4475 32.8638 55.3517L44.5838 47.305C44.6163 47.2842 44.6455 47.2592 44.6738 47.2333C45.9338 46.0825 46.0047 44.1433 44.833 42.9058C43.698 41.7067 41.8022 41.6125 40.5522 42.6742C40.5538 42.6725 29.9238 48.2767 29.9238 48.2767H25.0413C24.5688 48.2767 24.1788 47.9075 24.1788 47.4433C24.1788 47.0408 24.5522 46.61 25.0413 46.61H28.9997C30.7113 46.61 32.0955 45.2375 32.0955 43.555C32.0955 41.8725 30.7113 40.5 28.9997 40.5H22.1505ZM22.1505 42.1667H28.9997C29.7838 42.1667 30.4272 42.7842 30.4272 43.555C30.4272 44.3258 29.7838 44.9433 28.9997 44.9433H25.0413C23.5888 44.9433 22.5122 46.25 22.5122 47.4433C22.5122 48.82 23.6405 49.9433 25.0413 49.9433H30.1288C30.2647 49.9433 30.3988 49.9108 30.518 49.8475L41.4197 44.1017C41.483 44.0683 41.5405 44.0275 41.5922 43.98C42.1722 43.45 43.0822 43.48 43.6222 44.05C44.1388 44.595 44.1188 45.4425 43.5897 45.9658C43.5872 45.9675 32.1347 53.8333 32.1347 53.8333H21.5797C21.4172 53.8333 21.2597 53.7858 21.1238 53.6967L18.523 51.9925V44.8817C19.4947 43.1117 21.1813 42.1667 22.1505 42.1667ZM14.833 43.2767H16.023C16.483 43.2767 16.8563 43.65 16.8563 44.11V52.9983C16.8563 53.4583 16.483 53.8317 16.023 53.8317H14.833C14.373 53.8317 13.9997 53.4583 13.9997 52.9983V44.11C13.9997 43.65 14.373 43.2767 14.833 43.2767Z" fill="#23282B"/>
</svg>
