<svg width="40" height="40" viewBox="0 0 40 40" fill="none" xmlns="http://www.w3.org/2000/svg">
<path fill-rule="evenodd" clip-rule="evenodd" d="M20.0007 2.5C19.0323 2.5 18.5373 2.83083 18.0882 3.28917C17.7748 3.60833 17.5123 4.05 16.8723 4.39583C16.2107 4.75333 15.1673 5 13.334 5C12.874 5 12.5007 5.37333 12.5007 5.83333V13.3333C12.5007 14.2875 13.1807 15.2942 14.249 16.1625C16.2982 17.8267 19.7073 19.1133 19.7073 19.1133C19.8957 19.1842 20.1056 19.1842 20.294 19.1133C20.294 19.1133 23.7032 17.8267 25.7523 16.1625C26.8207 15.2942 27.5007 14.2875 27.5007 13.3333V5.83333C27.5007 5.37333 27.1273 5 26.6673 5C24.834 5 23.7906 4.75333 23.129 4.39583C22.489 4.05 22.2265 3.60833 21.9132 3.28917C21.464 2.83083 20.969 2.5 20.0007 2.5ZM20.0007 4.16667C20.5632 4.16667 20.7348 4.46417 21.0048 4.7675C21.6732 5.52 22.5723 6.50667 25.834 6.64917V13.3333C25.834 13.5508 25.7265 13.7617 25.5782 13.975C25.3632 14.2842 25.0557 14.5825 24.7015 14.87C23.1765 16.1092 20.8215 17.11 20.0023 17.4383C19.1815 17.11 16.8248 16.1092 15.2998 14.87C14.9457 14.5825 14.6382 14.2842 14.4232 13.975C14.2748 13.7617 14.1673 13.5508 14.1673 13.3333V6.64917C17.429 6.50667 18.3282 5.52 18.9965 4.7675C19.2665 4.46417 19.4382 4.16667 20.0007 4.16667ZM22.5007 8.33333C22.2873 8.33333 22.074 8.415 21.9115 8.5775L19.1673 11.3217L18.0898 10.2442C17.7648 9.91917 17.2365 9.91917 16.9115 10.2442C16.5865 10.5692 16.5865 11.0975 16.9115 11.4225L18.5781 13.0892C18.9031 13.415 19.4315 13.415 19.7565 13.0892L23.0898 9.75583C23.4148 9.43083 23.4148 8.9025 23.0898 8.5775C22.9273 8.415 22.714 8.33333 22.5007 8.33333ZM13.1515 22.5C12.1123 22.5 10.4032 23.2067 9.06815 24.6725C8.61482 24.0308 7.86815 23.61 7.02398 23.61H5.83398C4.45398 23.61 3.33398 24.73 3.33398 26.11V34.9983C3.33398 36.3783 4.45398 37.4983 5.83398 37.4983H7.02398C8.09315 37.4983 9.00565 36.825 9.36232 35.8792C10.049 36.3283 10.649 36.7217 11.2115 37.09C11.619 37.3567 12.094 37.5 12.5807 37.5H23.394C23.5623 37.5 23.7257 37.4475 23.8648 37.3517L35.5848 29.305C35.6173 29.2842 35.6465 29.2592 35.6748 29.2333C36.9348 28.0825 37.0056 26.1433 35.834 24.9058C34.699 23.7067 32.8032 23.6125 31.5532 24.6742C31.5548 24.6725 20.9248 30.2767 20.9248 30.2767H16.0423C15.5698 30.2767 15.1798 29.9075 15.1798 29.4433C15.1798 29.0408 15.5532 28.61 16.0423 28.61H20.0007C21.7123 28.61 23.0965 27.2375 23.0965 25.555C23.0965 23.8725 21.7123 22.5 20.0007 22.5H13.1515ZM13.1515 24.1667H20.0007C20.7848 24.1667 21.4282 24.7842 21.4282 25.555C21.4282 26.3258 20.7848 26.9433 20.0007 26.9433H16.0423C14.5898 26.9433 13.5132 28.25 13.5132 29.4433C13.5132 30.82 14.6415 31.9433 16.0423 31.9433H21.1298C21.2656 31.9433 21.3998 31.9108 21.519 31.8475L32.4207 26.1017C32.484 26.0683 32.5415 26.0275 32.5932 25.98C33.1732 25.45 34.0832 25.48 34.6232 26.05C35.1398 26.595 35.1198 27.4425 34.5907 27.9658C34.5882 27.9675 23.1357 35.8333 23.1357 35.8333H12.5807C12.4182 35.8333 12.2607 35.7858 12.1248 35.6967L9.52398 33.9925V26.8817C10.4957 25.1117 12.1823 24.1667 13.1515 24.1667ZM5.83398 25.2767H7.02398C7.48398 25.2767 7.85732 25.65 7.85732 26.11V34.9983C7.85732 35.4583 7.48398 35.8317 7.02398 35.8317H5.83398C5.37398 35.8317 5.00065 35.4583 5.00065 34.9983V26.11C5.00065 25.65 5.37398 25.2767 5.83398 25.2767Z" fill="#E5E5E5"/>
</svg>
